<?xml version="1.0" encoding="utf-8"?>
<!-- Generator: Adobe Illustrator 25.0.0, SVG Export Plug-In . SVG Version: 6.00 Build 0)  -->
<svg version="1.1" id="Layer_1" xmlns="http://www.w3.org/2000/svg" xmlns:xlink="http://www.w3.org/1999/xlink" x="0px" y="0px"
	 viewBox="0 0 283.46 283.46" style="enable-background:new 0 0 283.46 283.46;" xml:space="preserve">
<g>
	<path d="M77.22,206.49c1.09-1.34,2.15-2.45,3.12-3.54c0.98-1.08,1.87-2.11,2.7-3.1c1.67-1.97,3.08-3.79,4.3-5.81
		c1.21-2.03,2.17-4.28,2.87-6.84c0.69-2.58,1.07-5.45,1.34-8.82l0-0.01l0.18,0.25c-2.15-0.26-3.97-0.52-5.68-0.61
		c-1.7-0.1-3.23-0.08-4.63,0.06c-2.78,0.31-5.12,0.94-7.52,1.94c-2.37,1.05-4.74,2.75-6.84,4.85c-2.32,2.36-4.51,4.92-6.5,7.71
		c-2,2.79-3.74,5.85-5.1,9.13c-0.68,1.64-1.26,3.34-1.72,5.08c-0.49,1.76-0.77,3.42-0.84,5.2c-0.05,1.76,0.08,3.56,0.55,5.29
		c0.45,1.73,1.3,3.34,2.27,4.83c1.97,2.96,4.67,5.41,7.73,7.04l-0.29-0.15c2.58,0.75,5.32,1.03,7.95,0.86
		c2.63-0.18,5.18-0.76,7.53-1.76c2.37-0.96,4.55-2.32,6.44-4.02c1.88-1.7,3.5-3.75,4.66-5.96l0.05-0.1l0.11-0.17
		c6.69-10.17,12.07-21.16,16.12-32.59c2.01-5.72,3.67-11.56,4.96-17.48c0.32-1.46,0.63-3,1.02-4.59c0.38-1.57,0.76-3.11,1.2-4.65
		c0.84-3.08,1.79-6.13,2.86-9.14c4.21-12.07,10.24-23.49,17.68-33.87c3.76-5.16,7.74-10.18,12.28-14.67
		c4.57-4.45,9.66-8.39,15.43-11.23c0.01-0.01,0.03-0.01,0.04-0.02l3.79-4.44l-1.82,5.87c-3.4,11-5.94,22.2-7.51,33.5
		c-0.21,1.41-0.38,2.82-0.53,4.24c-0.17,1.41-0.32,2.83-0.43,4.25c-0.29,2.83-0.48,5.67-0.63,8.51c-0.29,5.68-0.28,11.37-0.07,17.04
		c0.07,2.84,0.32,5.67,0.51,8.49c0.28,2.82,0.56,5.64,0.93,8.45c0.72,5.62,1.69,11.21,2.94,16.74c1.29,5.52,2.71,11,4.11,16.52
		c1.38,5.53,2.89,11.03,4.05,16.79l-2.32,1.01c-6.75-9.8-10.81-21.12-13.25-32.67c-2.47-11.55-3.95-23.35-4-35.16
		c-0.06-2.95,0-5.9,0.1-8.85l0.25-4.42c0.1-1.47,0.24-2.94,0.36-4.41c0.28-2.93,0.61-5.86,1.04-8.77c0.2-1.46,0.45-2.91,0.71-4.36
		c0.24-1.45,0.51-2.9,0.81-4.34c2.3-11.53,5.81-22.8,10.56-33.47l1.98,1.43c-0.01,0.01-0.02,0.03-0.03,0.04
		c-3.92,4.94-7.99,9.44-11.95,14.03c-1.97,2.3-3.97,4.56-5.87,6.92c-1.9,2.35-3.69,4.78-5.43,7.25c-3.45,4.96-6.55,10.16-9.28,15.54
		c-1.38,2.69-2.62,5.44-3.85,8.2c-1.17,2.78-2.3,5.58-3.29,8.44c-1,2.85-1.94,5.72-2.76,8.63c-0.42,1.44-0.8,2.93-1.17,4.37
		c-0.37,1.42-0.67,2.93-1.05,4.5c-1.48,6.2-3.35,12.3-5.58,18.26c-4.44,11.93-10.47,23.24-17.73,33.64l0.16-0.26
		c-1.63,2.89-3.74,5.4-6.23,7.52c-1.24,1.06-2.58,2.01-4.02,2.8c-1.43,0.8-2.91,1.49-4.47,1.96c-3.09,1.02-6.38,1.36-9.55,1.08
		c-3.18-0.27-6.23-1.11-9.06-2.44l-0.25-0.12l-0.04-0.03c-3.18-2.39-5.8-5.39-7.63-8.8c-0.92-1.71-1.62-3.5-2.27-5.3
		c-0.63-1.81-1.2-3.68-1.5-5.63c-0.15-0.97-0.28-1.95-0.33-2.95c-0.05-1-0.05-1.99-0.04-2.95c0.03-1.94,0.15-3.89,0.36-5.85
		c0.42-3.92,1.28-7.86,2.61-11.71c1.35-3.83,3.21-7.54,5.61-10.91c2.6-3.62,6.12-6.76,10.54-8.74c4.37-2.05,9.71-2.42,14.24-0.75
		c2.24,0.84,4.25,2.09,5.85,3.67c1.6,1.58,2.86,3.43,3.53,5.59l0.18,0.25l0,0.01c1.37,1.18,2.42,2.65,3.25,4.25
		c0.83,1.6,1.41,3.37,1.71,5.21c0.62,3.69,0.08,7.69-1.55,11.23l-0.64,1.32c-0.23,0.43-0.51,0.84-0.76,1.25
		c-0.51,0.84-1.13,1.59-1.76,2.33c-1.31,1.43-2.79,2.68-4.44,3.6c-1.64,0.92-3.38,1.61-5.19,1.95c-1.81,0.34-3.65,0.43-5.57-0.05
		L77.22,206.49z"/>
</g>
<g>
	<path d="M105.65,136.88c4.77,4.19,10.03,7.59,15.58,9.98c2.78,1.18,5.61,2.14,8.5,2.8c1.44,0.33,2.9,0.57,4.35,0.79
		c1.46,0.18,2.92,0.33,4.38,0.38c5.84,0.23,11.65-0.55,17.22-2.36c5.55-1.79,10.96-4.49,15.88-7.77l0,0l-0.92,1.26
		c2.47-7.04,5-14.02,7.36-21.06c1.2-3.51,2.32-7.05,3.47-10.58c0.57-1.77,1.11-3.54,1.64-5.32l1.63-5.33
		c1.04-3.56,2.04-7.14,3.05-10.72c0.96-3.59,1.99-7.17,2.92-10.78c1.98-7.2,3.78-14.46,5.91-21.75l2.22,0.28
		c0.21,7.64-0.41,15.25-1.39,22.81c-0.54,3.77-1.12,7.54-1.89,11.28c-0.72,3.75-1.59,7.46-2.53,11.16
		c-0.48,1.85-0.95,3.69-1.46,5.53c-0.53,1.83-1.07,3.66-1.63,5.48c-1.1,3.65-2.35,7.26-3.65,10.85c-2.64,7.16-5.61,14.2-9.12,20.97
		l-0.45,0.87l-0.47,0.39l0,0c-2.41,2.62-5.18,4.74-8.13,6.63c-1.49,0.92-3.01,1.78-4.59,2.55c-1.59,0.75-3.21,1.44-4.87,2.03
		c-3.32,1.18-6.8,1.98-10.32,2.4c-3.52,0.38-7.1,0.4-10.6-0.03c-3.5-0.4-6.96-1.2-10.25-2.39c-1.65-0.6-3.26-1.27-4.83-2.02
		c-1.56-0.76-3.07-1.64-4.53-2.56c-5.81-3.72-10.76-8.6-14.2-14.37L105.65,136.88z"/>
</g>
<g>
	<path d="M163.41,60.44c5.68-1.37,11.34-2.43,16.99-3.46c5.65-1.02,11.29-1.96,16.94-2.88c5.65-0.92,11.29-1.81,16.98-2.55
		c5.69-0.73,11.41-1.41,17.28-1.63l0.67,2.73c-5.35,2.52-10.93,4.33-16.56,5.85c-5.64,1.51-11.38,2.63-17.15,3.46
		c-5.77,0.83-11.59,1.42-17.42,1.66c-5.83,0.24-11.68,0.21-17.53-0.39L163.41,60.44z"/>
</g>
</svg>
