<svg id="Layer_1" data-name="Layer 1" xmlns="http://www.w3.org/2000/svg" viewBox="0 0 204.79 191.82"><defs><style>.cls-1{stroke:#000;stroke-miterlimit:10;}</style></defs><path class="cls-1" d="M88.52,225.4a35.85,35.85,0,0,1,25.57-13.54v17a71,71,0,0,1-25.57-3.44Z" transform="translate(-81.84 -88.36)"/><path class="cls-1" d="M143,225.4a35.85,35.85,0,0,0-25.57-13.54v17a70.51,70.51,0,0,0,13.32-.6A69.6,69.6,0,0,0,143,225.4Z" transform="translate(-81.84 -88.36)"/><path class="cls-1" d="M88.52,266.1a35.85,35.85,0,0,0,25.57,13.54v-17a71,71,0,0,0-25.57,3.44Z" transform="translate(-81.84 -88.36)"/><path class="cls-1" d="M143,266.1a35.85,35.85,0,0,1-25.57,13.54v-17a70.51,70.51,0,0,1,13.32.6A69.6,69.6,0,0,1,143,266.1Z" transform="translate(-81.84 -88.36)"/><path class="cls-1" d="M117.44,259.29V247.48h31.72a38.41,38.41,0,0,1-5,16.09,94.69,94.69,0,0,0-26.68-4.28Z" transform="translate(-81.84 -88.36)"/><path class="cls-1" d="M114.1,259.29V247.48H82.38a38.41,38.41,0,0,0,5,16.09,93.08,93.08,0,0,1,13-3.06A94.09,94.09,0,0,1,114.1,259.29Z" transform="translate(-81.84 -88.36)"/><path class="cls-1" d="M117.44,232.35v11.81h31.72a38.41,38.41,0,0,0-5-16.09,94.69,94.69,0,0,1-26.68,4.28Z" transform="translate(-81.84 -88.36)"/><path class="cls-1" d="M114.1,232.35v11.81H82.38a38.41,38.41,0,0,1,5-16.09,94.69,94.69,0,0,0,26.68,4.28Z" transform="translate(-81.84 -88.36)"/><path class="cls-1" d="M174.55,218.76a4.78,4.78,0,0,0-2,9.13A94.08,94.08,0,0,0,239,218.77a4.8,4.8,0,0,0-4.66-8.11,104.88,104.88,0,0,1-59.8,8.1Z" transform="translate(-81.84 -88.36)"/><path class="cls-1" d="M145.61,221.55a59.65,59.65,0,0,1,7.32,17.53Q166.3,193,179.65,146.82a49.63,49.63,0,0,1,8.26,11.29,52.27,52.27,0,0,1,5.7,28.88,2.22,2.22,0,0,0,3.84,1.71c1.63-3.77,12.68-30.43-1.28-54.81A54.8,54.8,0,0,0,179,115.68a2.36,2.36,0,0,0-1.91-.19,2.39,2.39,0,0,0-1.33,1.21Q160.68,169.13,145.61,221.55Z" transform="translate(-81.84 -88.36)"/><path class="cls-1" d="M190.91,101.56a61.31,61.31,0,0,0,2.28,6.33c1.42,2.88,2.25,3.33,2.62,3.48,1.52.67,2.94-.14,4.66-.64,0,0,3.75-1.56,9.3.46a17.71,17.71,0,0,1,10.13,10q6.12,15.53,12.25,31.06c1.38,3.43,5.91,13.39,16.77,18.89a33.35,33.35,0,0,0,10.89,3.32,35,35,0,0,0-5.87,8.94c-7.08,15.61-.06,31.58,1.7,35.32q2.1,5.82,4.17,11.74,2.82,8.06,5.51,16a12.42,12.42,0,0,1-1.49,9.06c-1.8,2.94-5.77,4.68-7.25,5.4-3,1.44-5,1.75-5.45,3.4a8.57,8.57,0,0,0,.41,3.69l3.36,9.24a4.87,4.87,0,0,0,2.36,2,5,5,0,0,0,3.73,0l11.84-5a26.83,26.83,0,0,0,9.45-9.19,27.39,27.39,0,0,0,3.57-17.88c-1.09-5.36-2.48-11.09-4.25-17.1a203.68,203.68,0,0,0-8.42-23.24c-4.06-7.84-3.91-16.82.6-23.31,3.82-5.48,7.66-6.46,7.82-6.54a3.1,3.1,0,0,0,1.43-1.4,2.9,2.9,0,0,0,.14-1.79,42,42,0,0,0-5.11-14.15,2.3,2.3,0,0,0-2.83-.95c-2.57.66-5.22,1.57-7.84,1.25-9.16-1.12-14.62-11.4-17.2-16.26a44.11,44.11,0,0,1-3-7c-1.78-5.61-3.91-11.58-6.46-17.82-2.38-5.82-4.85-11.21-7.32-16.17a33.83,33.83,0,0,0-3.32-4.34,35.12,35.12,0,0,0-4.51-4.17A32,32,0,0,0,214,89.41c-7.69-1.48-13.51.36-17.8,1.7-4.45,1.39-5.8,2.61-6.37,4C189.16,96.8,189.77,98.43,190.91,101.56Z" transform="translate(-81.84 -88.36)"/></svg>
