<?xml version="1.0" encoding="utf-8"?>
<!-- Generator: Adobe Illustrator 25.0.0, SVG Export Plug-In . SVG Version: 6.00 Build 0)  -->
<svg version="1.1" id="Layer_1" xmlns="http://www.w3.org/2000/svg" xmlns:xlink="http://www.w3.org/1999/xlink" x="0px" y="0px"
	 viewBox="0 0 283.46 141.73" style="enable-background:new 0 0 283.46 141.73;" xml:space="preserve">
<style type="text/css">
	.st0{fill:none;}
	.st1{fill:#FFFF00;}
</style>
<g>
	<rect x="7.77" y="8.57" class="st0" width="267.91" height="124.6"/>
	<path d="M31.99,92.45c0.09-0.17,0.15-0.27,0.18-0.29l0.57-0.35c0.14-0.1,0.4-0.42,0.78-0.94c0.04-0.05,0.19-0.18,0.45-0.37
		c0.14-0.1,0.27-0.25,0.37-0.45c-0.01-0.12-0.02-0.22-0.02-0.31c0-0.27,0.18-0.57,0.53-0.88c0.49-0.47,0.79-0.78,0.9-0.94l1.07-1.95
		c0.01-0.01,0.14-0.05,0.37-0.12l0.08-0.08c-0.01-0.14-0.02-0.27-0.02-0.37c0-0.16,0.01-0.25,0.04-0.29l0.49-0.64l1.93-3.01
		l0.04-0.2c-0.1-0.08-0.18-0.12-0.23-0.12c-0.03,0-0.1,0.01-0.21,0.04c-0.05,0.01-0.12,0.02-0.2,0.02c-0.1,0-0.23-0.01-0.37-0.02
		c-0.08-0.25-0.12-0.43-0.12-0.55c0-0.07,0.08-0.21,0.25-0.45c0.1-0.34,0.21-0.6,0.33-0.78c0.2-0.27,0.35-0.5,0.47-0.66
		c0.26,0,0.44,0.02,0.55,0.06l0.86,0.29l0.06-0.04c0.04-0.14,0.06-0.25,0.06-0.31c0-0.1-0.03-0.25-0.1-0.45
		c0.23-0.16,0.36-0.27,0.39-0.33l0.39-0.74c0.09-0.18,0.34-0.46,0.76-0.84c0.04-0.31,0.08-0.5,0.13-0.57c0.05-0.07,0.3-0.3,0.75-0.7
		c0.04-0.05,0.19-0.4,0.45-1.05c0.08-0.17,0.44-0.73,1.07-1.68l1.29-2.5l0.53-0.57c0.03-0.23,0.05-0.37,0.08-0.41
		c0.03-0.04,0.21-0.31,0.55-0.8c0.03-0.04,0.04-0.08,0.04-0.14c0-0.09-0.01-0.2-0.04-0.31c0.12-0.1,0.24-0.29,0.37-0.55
		c0.12-0.25,0.24-0.47,0.37-0.66L48.61,67c0.06-0.16,0.1-0.27,0.1-0.33c0-0.1-0.05-0.26-0.16-0.47c0.13-0.31,0.23-0.51,0.29-0.59
		c0.25-0.36,0.37-0.58,0.37-0.64c0.01-0.01,0.02-0.16,0.02-0.43c0-0.04,0.07-0.18,0.21-0.43c0.05-0.08,0.18-0.4,0.39-0.96
		c0.03-0.08,0.1-0.25,0.21-0.53l0.84-0.08l-0.08-0.25l-0.51-0.23v-0.31c0.2-0.16,0.34-0.33,0.43-0.53l-0.21-0.2v-0.08
		c0.2-0.18,0.38-0.44,0.57-0.76c0.17-0.31,0.32-0.57,0.45-0.78c-0.1-0.18-0.16-0.33-0.16-0.45v-0.14v-0.2v-0.41l1.58-1.09l0.37,0.27
		c0.13-0.25,0.21-0.41,0.23-0.49c0.09-0.22,0.18-0.33,0.27-0.33c0.09,0,0.2,0.03,0.31,0.08c0.06-0.27,0.2-0.48,0.39-0.61
		c0.26-0.2,0.49-0.29,0.7-0.29c0.39,0,0.61,0.48,0.64,1.43c0.14,0.62,0.22,1.05,0.23,1.29c0.05,0.4,0.22,0.86,0.51,1.37
		c0.17,0.68,0.25,1.12,0.25,1.33c0,0.14,0,0.3,0,0.47l-0.78,0.41c0.12,0.26,0.23,0.42,0.33,0.49c0.06,0.03,0.36,0.12,0.88,0.27
		c0.25,0.08,0.51,0.46,0.78,1.15c0.2,0.48,0.29,0.77,0.29,0.88c0,0.08-0.08,0.24-0.23,0.49c0.21,0.21,0.34,0.34,0.41,0.39
		c0.33,0.29,0.5,0.46,0.53,0.53l0.23,0.61l0.39,0.98c0.04,0.08,0.07,0.29,0.1,0.64c0.4,0.42,0.63,0.85,0.68,1.29
		c0.04,0.35,0.06,0.53,0.06,0.55l0.43,0.66c0.05,0.1,0.33,0.65,0.82,1.64l-0.45,0.27c0.08,0.25,0.18,0.43,0.31,0.55l0.29,0.06
		l-0.06,0.43c1.33,1.26,2.01,2.49,2.05,3.69c0.05,0.29,0.33,0.89,0.84,1.82c0.7,1.33,1.09,2.1,1.17,2.32
		c0.1,0.29,0.25,0.57,0.43,0.84l1.21,2.68l-0.04,0.57c0.78,0.42,1.17,0.81,1.17,1.19c0,0.18-0.19,0.36-0.57,0.55
		c0.1,0.22,0.21,0.36,0.31,0.41c0.03,0.03,0.16,0.08,0.39,0.16c0.18,0.07,0.38,0.31,0.59,0.72c0.1,0.2,0.27,0.66,0.51,1.41
		c0.56,0.86,0.91,1.42,1.05,1.68c-0.25,0.2-0.37,0.4-0.37,0.62c0,0.08,0.01,0.18,0.02,0.29c-0.44,0.2-0.76,0.31-0.94,0.35
		c-0.07,0.03-0.29,0.05-0.68,0.06c-0.18,0.01-0.64,0.17-1.37,0.47c-0.34-0.77-0.54-1.32-0.61-1.64c-0.05-0.27-0.18-0.57-0.37-0.88
		c-0.35-0.96-0.53-1.5-0.53-1.62c0-0.09,0.01-0.2,0.02-0.31c-0.23-0.22-0.37-0.42-0.41-0.59c-0.01-0.04-0.03-0.24-0.04-0.61
		c-0.03-0.14-0.04-0.24-0.04-0.29c0-0.16,0.06-0.37,0.2-0.64l-0.59-0.53c0.16-0.2,0.27-0.33,0.33-0.39c0.13-0.1,0.2-0.2,0.2-0.27
		s-0.01-0.17-0.04-0.27l-0.94,0.08c-0.31-0.42-0.53-0.75-0.64-1c-0.07-0.16-0.17-0.57-0.31-1.23l-0.29-0.68
		c-0.16-0.83-0.27-1.33-0.35-1.48c-0.22-0.47-0.59-0.7-1.09-0.7c-0.46,0-0.71,0.49-0.76,1.46c-0.1,0.04-0.17,0.06-0.2,0.06
		c-0.14,0-0.33-0.09-0.55-0.27c-0.38-0.26-0.77-0.43-1.17-0.51c-0.2-0.03-0.47-0.12-0.82-0.29c-0.47-0.22-0.85-0.33-1.13-0.33
		c-0.12,0-0.48,0.07-1.07,0.2l-0.57-0.1l-0.62,0.06h-0.53l-0.53,0.08l-0.92,0.02c-0.39,0.01-0.65,0.02-0.78,0.02l-0.29,0.02
		l-1.21-0.27l-0.59,0.12c-0.42-0.12-0.64-0.18-0.68-0.18c-0.08,0-0.39,0.07-0.94,0.21c-0.4,0.09-0.76,0.15-1.07,0.18l-0.55-0.62
		c-0.42,0.08-0.83,0.23-1.25,0.45c-0.04,0.03-0.33,0.08-0.86,0.16c-0.2,0.03-0.3,0.04-0.31,0.04c-0.16,0-0.35-0.02-0.59-0.06
		c-0.33-0.07-0.61-0.1-0.86-0.1c-0.18,0-0.51,0.06-0.98,0.18c-0.27,0.08-0.56,0.13-0.86,0.16c-0.14,0.23-0.23,0.39-0.27,0.47
		c-0.2,0.4-0.45,0.79-0.76,1.17c-0.22,0.35-0.53,0.87-0.92,1.54l-0.35-0.08c-0.1,0.1-0.16,0.2-0.16,0.29c0,0.08,0.02,0.21,0.06,0.41
		c0.01,0.08,0.03,0.19,0.04,0.33c-0.25,0.29-0.38,0.46-0.41,0.53l-0.94,1.89c-0.17,0.27-0.35,0.57-0.55,0.9l-0.18,0.27l-1.07,0.68
		c-0.05,0.04-0.08,0.11-0.08,0.21c0,0.14,0.15,0.34,0.45,0.59l-0.29,0.92c-0.31,0.12-0.53,0.22-0.64,0.31
		c-0.18,0.13-0.37,0.42-0.57,0.86c-0.38,0.16-0.62,0.27-0.72,0.35c-0.18,0.13-0.32,0.2-0.41,0.2c-0.04,0-0.17-0.07-0.39-0.2
		c-0.05-0.04-0.14-0.06-0.25-0.06c-0.08,0-0.17,0.01-0.27,0.02C32.56,92.71,32.29,92.54,31.99,92.45z M42.77,78.94
		c0.29-0.16,0.46-0.23,0.53-0.23c0.09,0,0.23,0.08,0.41,0.25l0.61-0.08l0.23,0.41c0.27-0.09,0.64-0.14,1.11-0.14h1.74
		c0.33,0.01,0.76,0.11,1.31,0.29c0.57,0.04,1,0.08,1.27,0.14c0.27,0.4,0.59,0.61,0.96,0.61l1.23-0.61l0.66,0.14h1.11l0.43,0.12
		l0.57-0.08l0.53,0.06l0.53-0.04l0.49,0.14l1.15-0.2l0.9-0.06l1.74-0.18l1.45,0.12c0.21,0,0.31-0.08,0.31-0.23
		c0-0.07-0.06-0.29-0.18-0.66c-0.03-0.1-0.05-0.26-0.06-0.47c-0.25-0.17-0.43-0.36-0.55-0.59c-0.46-0.92-0.72-1.39-0.78-1.39
		c-0.13-0.18-0.23-0.4-0.29-0.64c-0.05-0.22-0.16-0.46-0.31-0.7c0.06-0.34,0.1-0.62,0.1-0.86c0-0.13-0.05-0.34-0.16-0.64l-0.68,0.1
		c-0.14-0.3-0.23-0.5-0.25-0.59l-0.14-0.49l-0.43-0.61l-0.49-0.86l-0.21-0.37c-0.09-0.53-0.26-1.02-0.51-1.45
		c-0.18-0.33-0.27-0.61-0.25-0.86l0.39-0.18c-0.13-0.21-0.29-0.31-0.49-0.31c-0.08,0-0.17,0.01-0.27,0.02
		c-0.13-0.27-0.22-0.45-0.27-0.53c-0.3-0.44-0.46-0.68-0.47-0.72l-0.12-0.76l-0.29-0.51l-0.29-0.68l-0.64-0.8l-0.35-1.13l-0.33-0.59
		c-0.17-0.35-0.36-0.68-0.57-0.98c-0.33,0.2-0.55,0.4-0.66,0.62c-0.22,0.43-0.33,0.82-0.31,1.17h-0.12
		c-0.22,0.38-0.51,0.81-0.86,1.31l-1.13,2.15c-0.21,0.36-0.35,0.68-0.41,0.94c-0.23,0.14-0.38,0.33-0.45,0.55
		c-0.25,0.56-0.6,0.92-1.05,1.07l0.1,0.55l-0.29,0.14H47.9c-0.25-0.03-0.46-0.05-0.64-0.06l-0.16,0.25l0.51,0.31
		c-0.16,0.51-0.38,1.02-0.68,1.54c-0.61,1.17-1.19,1.93-1.74,2.27c-0.13,0.08-0.21,0.29-0.23,0.62c-0.01,0.25-0.07,0.48-0.18,0.7
		l-0.53,0.98l-0.45,0.49l-0.23,0.55c-0.3,0.48-0.48,0.81-0.55,0.98C42.94,78.49,42.86,78.72,42.77,78.94z"/>
	<path d="M73.43,55.46c0.2-0.05,0.36-0.12,0.49-0.21c0.31-0.21,0.55-0.34,0.72-0.41c0.35-0.16,0.68-0.41,0.98-0.76
		c0.06,0,0.12,0,0.18,0c0.3,0,0.45,0.18,0.45,0.53v0.04c0,0.08-0.01,0.16-0.02,0.25c-0.01,0.07-0.02,0.1-0.02,0.12l0.2,0.68
		l-0.08,1.64c-0.01,1.05-0.03,1.61-0.04,1.66c-0.03,0.13-0.14,0.31-0.33,0.53l-0.12,0.62l0.41,0.06c0.08,0.33,0.12,0.56,0.12,0.7
		c0,0.25-0.14,0.51-0.41,0.78c-0.03,0.36-0.04,0.6-0.04,0.7c0,0.14,0.08,0.29,0.25,0.43c0.01,0.25,0.02,0.43,0.02,0.55l-0.1,2.44
		v2.48c0,0.13-0.12,0.38-0.35,0.76c-0.08,0.14-0.12,0.27-0.12,0.39c0,0.03,0.09,0.35,0.27,0.98c0,0.01,0,0.05,0,0.1
		c0,0.2-0.14,0.42-0.41,0.66l0.43,0.94l0.21,0.16v1.21l0.06,4.39l-0.35,0.21c0.04,0.29,0.06,0.52,0.06,0.7
		c0,0.05-0.04,0.36-0.12,0.94c0,0.03,0,0.2,0,0.53l0.61,0.08l-0.06,0.14l0.35,3.18l-0.04,0.82l0.12,0.59
		c-0.26,0.42-0.39,0.64-0.39,0.68c0,0.07,0.03,0.15,0.1,0.25c-0.26,0.1-0.62,0.3-1.09,0.59c-0.27,0.16-0.43,0.24-0.46,0.25
		c-0.03,0.01-0.16,0.02-0.38,0.02c-0.31,0.25-0.57,0.37-0.76,0.37c-0.05,0-0.14-0.03-0.27-0.08c0.01-0.2,0.02-0.36,0.02-0.49
		s-0.03-0.33-0.08-0.61c-0.03-0.12-0.04-0.22-0.04-0.31c0-0.04,0.05-0.24,0.16-0.61l0.04-0.43l0.08-0.59l-0.06-0.37l1.64-1.05
		l-1.58-1.09l0.04-0.25l0.14-0.7l0.18-0.49c0-0.03-0.12-0.26-0.35-0.7c-0.04-0.08-0.06-0.15-0.06-0.21c0-0.04,0.1-0.31,0.29-0.82
		c0.14-0.38,0.22-0.73,0.23-1.05l-0.45-0.23c0-0.33,0-0.55,0-0.66c-0.03-0.3-0.04-0.5-0.04-0.59c0-0.04,0.07-0.33,0.21-0.86
		c0.01-0.05,0.02-0.16,0.02-0.31c0-0.46-0.03-0.96-0.08-1.52c-0.03-0.21-0.04-0.39-0.04-0.55c0-0.13,0.1-0.42,0.31-0.88
		c0.01-0.4,0.05-0.72,0.12-0.96l-0.41-0.49v-4.3c0.17-0.13,0.28-0.26,0.33-0.39c0.08-0.22,0.18-0.48,0.31-0.76
		c-0.27-0.1-0.5-0.22-0.66-0.35c0.09-0.36,0.14-0.59,0.14-0.68c0-0.13-0.12-0.26-0.35-0.39c-0.04-0.18-0.06-0.42-0.06-0.7l-0.02-0.8
		c0-0.1,0.09-0.31,0.27-0.61c0.04-0.05,0.06-0.1,0.06-0.16c0-0.03-0.04-0.15-0.11-0.38c-0.07-0.23-0.11-0.35-0.13-0.36l-0.06-0.12
		l1.46-1.04l-1-1.35c-0.51-0.68-0.76-1.07-0.76-1.19c0-0.1,0.04-0.32,0.12-0.64C73.37,55.96,73.4,55.75,73.43,55.46z"/>
	<path d="M81.42,73.64c0-0.18,0.2-0.43,0.59-0.74c0.86-0.66,1.6-1.1,2.23-1.31l0.59,0.61c-0.13,0.33-0.23,0.78-0.31,1.37
		c-0.08,0.48-0.12,0.77-0.12,0.88v0.72l-0.33,0.47c0,0.33,0.14,0.64,0.43,0.94c-0.08,0.14-0.12,0.23-0.12,0.25l0.04,0.96L84.39,78
		c-0.01,0.09-0.02,0.24-0.02,0.45l-0.1,3.73c0.01,0.2,0.1,0.64,0.25,1.35l0.04,0.82c0.08,0.39,0.12,0.62,0.12,0.68
		c0,0.27-0.12,0.52-0.35,0.74c-0.07,0.07-0.31,0.23-0.74,0.51c-0.65,0.51-1.02,0.78-1.11,0.82c-0.13,0.05-0.25,0.08-0.35,0.08
		c-0.16,0-0.31-0.08-0.47-0.23c0.05-0.33,0.08-0.54,0.1-0.64c0.01-0.16,0.08-0.44,0.21-0.86l0.02-0.96l0.14-1.91l-0.02-0.35
		c0.01-0.21,0.12-0.31,0.31-0.31c0.05,0,0.12,0.01,0.2,0.02c0.06-0.21,0.1-0.35,0.1-0.43c0-0.1-0.04-0.31-0.12-0.61
		c-0.04-0.13-0.08-0.31-0.12-0.55l-0.33-0.25c0.04-0.29,0.06-0.5,0.06-0.64c0-0.07-0.01-0.16-0.02-0.29c0-0.1,0-0.2,0-0.27
		c0-0.17,0.06-0.36,0.2-0.57c-0.13-0.16-0.2-0.32-0.2-0.49v-0.16v-0.14l-0.04-0.45c0.85-0.16,1.27-0.29,1.27-0.41
		c0-0.01-0.01-0.03-0.04-0.06c-0.2-0.17-0.44-0.25-0.72-0.25c-0.21,0-0.46,0.01-0.76,0.04c0.04-0.2,0.06-0.33,0.06-0.39
		c0-0.03-0.05-0.67-0.16-1.93C81.78,73.92,81.65,73.77,81.42,73.64z M81.77,65.77v-0.02c-0.03-0.46,0.31-0.95,1-1.48
		c0.16-0.12,0.33-0.29,0.51-0.51c0.01-0.01,0.14-0.12,0.39-0.31c0.48-0.72,0.78-1.11,0.9-1.19c0.2-0.14,0.36-0.21,0.49-0.21
		c0.05,0,0.2,0.1,0.45,0.29c0.25,0.18,0.37,0.4,0.37,0.66c0,0.21-0.12,0.39-0.35,0.55c-0.6,0.43-1.17,0.9-1.72,1.41l-0.55,0.35
		l-0.68,0.47c-0.36,0.2-0.57,0.29-0.62,0.29C81.83,66.07,81.77,65.97,81.77,65.77z"/>
	<path d="M89.92,74.5c0.05-0.21,0.09-0.33,0.12-0.37c0.03-0.04,0.14-0.14,0.35-0.29c0.13-0.12,0.46-0.39,0.98-0.82
		c0.7-0.4,1.1-0.61,1.19-0.61c0.21,0,0.45,0.18,0.72,0.53c-0.09,0.2-0.14,0.34-0.14,0.45c0,0.09,0.05,0.24,0.14,0.45
		c0.25-0.12,0.82-0.42,1.72-0.92l0.51-0.14c0.43-0.14,0.71-0.21,0.84-0.21c0.43,0,0.8,0.1,1.11,0.29c0.2-0.39,0.8-0.61,1.82-0.66
		l2.46,0.06c0.23,0.01,0.37,0.01,0.41,0c0.16-0.01,0.26-0.02,0.31-0.02c0.23,0,0.48,0.15,0.74,0.45c0.27,0.04,0.59,0.14,0.94,0.31
		c0.74,0.27,1.26,0.57,1.54,0.9c0.04,0.04,0.1,0.18,0.18,0.43c0.04,0.12,0.12,0.26,0.23,0.43l0.8-0.16
		c0.44,0.48,0.75,0.93,0.92,1.35c0.22,0.68,0.41,1.52,0.57,2.52v0.02c0,0.12,0,0.23,0,0.33c-0.01,0.13-0.02,0.2-0.02,0.21
		c0,0.21,0.03,0.47,0.1,0.78v0.04c0,0.07-0.1,0.34-0.31,0.84c-0.13,0.3-0.33,0.62-0.59,0.96l-0.57,0.98
		c-0.26,0.21-0.47,0.45-0.62,0.72l-0.76-0.18c-0.17,0.7-0.47,1.15-0.9,1.35c-0.04,0.01-0.21,0.03-0.51,0.04
		c-0.21,0-0.38,0.03-0.51,0.08c0.05,0.69-0.85,1.35-2.71,1.97c-0.5,0.2-0.84,0.3-1.04,0.31h-1.35c-0.05,0-0.13,0.03-0.23,0.08
		c-0.3,0.14-0.49,0.21-0.57,0.21c-0.04,0-0.19-0.05-0.45-0.16c-0.51-0.08-1.03-0.15-1.56-0.21l0.06-0.35
		c-0.18-0.59-0.31-0.88-0.37-0.88l-0.2,0.39c-0.16,0.38-0.26,0.6-0.31,0.67c-0.05,0.07-0.16,0.11-0.31,0.11h-0.14h-0.2
		c-0.08,0-0.18,0.01-0.29,0.02c-0.08,0-0.14,0-0.18,0c-0.12,0-0.27-0.05-0.47-0.16c-0.12,0.29-0.18,0.51-0.18,0.68
		c0,0.21,0.02,0.68,0.06,1.43c0.03,0.17,0.04,0.31,0.04,0.41c0,0.18-0.05,0.3-0.14,0.35l-0.61,0.33c-0.05,0.03-0.1,0.16-0.14,0.39
		s-0.09,0.38-0.16,0.43l-0.29,0.21c0.65,0.38,0.99,0.58,1.01,0.6s0.06,0.1,0.11,0.24c0.03,0.09,0.08,0.38,0.18,0.86
		c0.05,0.85,0.09,1.42,0.12,1.72l-0.47,0.12c-0.03,0.16-0.04,0.29-0.04,0.41c0,0.05,0.07,0.34,0.21,0.88
		c0.01,0.05,0.02,0.12,0.02,0.21c0,0.1-0.01,0.22-0.02,0.35l0.35-0.06c0.03,0.6,0.05,0.99,0.08,1.17c0.01,0.21,0.03,0.68,0.04,1.41
		l0.12,0.49c0,0.07-0.03,0.18-0.1,0.35c-0.23,0.03-0.42,0.08-0.55,0.16l0.61,0.35c-0.01,0.13-0.02,0.25-0.02,0.35
		c0,0.12,0.03,0.3,0.08,0.55c0.06,0.27,0.1,0.58,0.12,0.92c-0.31,0.21-0.51,0.36-0.59,0.47c-0.05,0.05-0.15,0.23-0.29,0.53
		l-0.45,0.18c-0.47,0.29-0.92,0.45-1.37,0.49h-0.02l-0.51-0.14c0.42-0.17,0.65-0.3,0.71-0.38s0.1-0.35,0.13-0.81l0.76-1.25
		l-1.48-1.66l0.06-0.06c0.08-0.09,0.19-0.23,0.33-0.43l-0.16-1.09c0.09-0.13,0.16-0.21,0.2-0.25c0.21-0.22,0.31-0.38,0.31-0.47
		s-0.08-0.19-0.23-0.29c-0.2-0.13-0.31-0.21-0.35-0.25c0.77-0.33,1.15-0.55,1.15-0.68c0-0.07-0.33-0.21-1-0.43l-0.06-0.04
		c0.64-0.38,0.96-0.62,0.96-0.74c0-0.08-0.25-0.52-0.74-1.33c-0.2-0.3-0.29-0.6-0.29-0.9c0-0.07,0.08-0.89,0.25-2.46l0.29-0.18
		l-0.06-1.23c-0.4-0.1-0.61-0.35-0.61-0.74c0-0.09,0.03-0.62,0.1-1.58l0.06-0.96v-3.03c0-0.09,0.07-0.28,0.21-0.57l-0.04-0.78
		l0.02-0.23c0-0.14-0.14-0.28-0.41-0.41c-0.01-0.33-0.02-0.55-0.02-0.68c0-0.2,0-0.36,0-0.51c0.01-0.34,0.02-0.56,0.02-0.66
		c0-0.03,0-0.06,0-0.1c-0.03-0.55-0.04-0.83-0.04-0.84s0.01-0.08,0.04-0.2c0.04-0.12,0.06-0.21,0.06-0.27v-0.04
		c-0.13-1.02-0.22-1.65-0.27-1.89C90.44,74.92,90.25,74.74,89.92,74.5z M92.81,77.14l0.16,0.16h0.21c0.01,0.31,0.02,0.59,0.02,0.82
		c0,0.16-0.01,0.29-0.02,0.41c-0.03,0.25-0.04,0.4-0.04,0.47c0,0.01,0.03,0.23,0.08,0.64v0.02c0,0.12-0.11,0.39-0.33,0.82
		c0.18,0.36,0.28,0.6,0.29,0.7l0.02,0.9l0.08,1.07c0,0.01-0.01,0.09-0.04,0.23c-0.01,0.12-0.03,0.29-0.06,0.51
		c0.23,0.14,0.4,0.23,0.49,0.27c0.7,0.34,1.11,0.56,1.21,0.66c0.04,0.01,0.1,0.09,0.2,0.23c0.18-0.14,0.31-0.21,0.39-0.21
		s0.22,0.04,0.43,0.12c0.14,0.05,0.37,0.08,0.68,0.1c0.39,0,0.61,0.01,0.66,0.04l1.29,0.43c0.05,0.01,0.12,0.02,0.2,0.02
		c0.01,0,0.48-0.07,1.39-0.2l0.74,0.82l0.61-0.29c0.46-0.23,0.75-0.4,0.9-0.51c0.09-0.08,0.27-0.25,0.55-0.53l0.72-0.51l0.62-0.68
		c0.56-0.47,0.89-0.75,0.98-0.84c0.14-0.17,0.36-0.7,0.64-1.58c0.18-0.53,0.27-0.92,0.27-1.15c0-0.14-0.01-0.29-0.04-0.45
		c-0.04-0.27-0.06-0.48-0.06-0.61c0-0.09,0.05-0.23,0.14-0.43c-0.31-0.21-0.52-0.42-0.62-0.62c-0.09-0.16-0.18-0.45-0.27-0.88
		c-0.3-0.23-0.55-0.5-0.76-0.8c-0.14-0.18-0.21-0.3-0.21-0.35c0-0.1,0.03-0.23,0.08-0.37c-0.18-0.26-0.38-0.39-0.61-0.39
		c-0.09,0-0.34,0.03-0.74,0.1c-0.29-0.18-0.48-0.31-0.57-0.39c-0.47-0.36-0.77-0.55-0.9-0.57c-0.03-0.01-0.29-0.02-0.78-0.02
		l-0.41-0.23c-0.17-0.08-0.51-0.12-1.04-0.12c-1.32,0-2.21,0.04-2.7,0.12c-0.1,0.03-0.6,0.17-1.48,0.43l-0.53,0.08
		c-0.12,0.03-0.31,0.13-0.59,0.31c-0.36,0.05-0.59,0.16-0.68,0.31c-0.09,0.16-0.14,0.36-0.14,0.62c0,0.1,0.01,0.25,0.02,0.45
		c-0.61,0.08-1.13,0.23-1.56,0.47l1.09,0.29L92.81,77.14z"/>
	<path d="M112.86,74.5c0.05-0.21,0.09-0.33,0.12-0.37c0.03-0.04,0.14-0.14,0.35-0.29c0.13-0.12,0.46-0.39,0.98-0.82
		c0.7-0.4,1.1-0.61,1.19-0.61c0.21,0,0.45,0.18,0.72,0.53c-0.09,0.2-0.14,0.34-0.14,0.45c0,0.09,0.05,0.24,0.14,0.45
		c0.25-0.12,0.82-0.42,1.72-0.92l0.51-0.14c0.43-0.14,0.71-0.21,0.84-0.21c0.43,0,0.8,0.1,1.11,0.29c0.2-0.39,0.8-0.61,1.82-0.66
		l2.46,0.06c0.23,0.01,0.37,0.01,0.41,0c0.16-0.01,0.26-0.02,0.31-0.02c0.23,0,0.48,0.15,0.74,0.45c0.27,0.04,0.59,0.14,0.94,0.31
		c0.74,0.27,1.26,0.57,1.54,0.9c0.04,0.04,0.1,0.18,0.18,0.43c0.04,0.12,0.12,0.26,0.23,0.43l0.8-0.16
		c0.44,0.48,0.75,0.93,0.92,1.35c0.22,0.68,0.41,1.52,0.57,2.52v0.02c0,0.12,0,0.23,0,0.33c-0.01,0.13-0.02,0.2-0.02,0.21
		c0,0.21,0.03,0.47,0.1,0.78v0.04c0,0.07-0.1,0.34-0.31,0.84c-0.13,0.3-0.33,0.62-0.59,0.96l-0.57,0.98
		c-0.26,0.21-0.47,0.45-0.62,0.72l-0.76-0.18c-0.17,0.7-0.47,1.15-0.9,1.35c-0.04,0.01-0.21,0.03-0.51,0.04
		c-0.21,0-0.38,0.03-0.51,0.08c0.05,0.69-0.85,1.35-2.71,1.97c-0.5,0.2-0.84,0.3-1.04,0.31h-1.35c-0.05,0-0.13,0.03-0.23,0.08
		c-0.3,0.14-0.49,0.21-0.57,0.21c-0.04,0-0.19-0.05-0.45-0.16c-0.51-0.08-1.03-0.15-1.56-0.21l0.06-0.35
		c-0.18-0.59-0.31-0.88-0.37-0.88l-0.2,0.39c-0.16,0.38-0.26,0.6-0.31,0.67c-0.05,0.07-0.16,0.11-0.31,0.11h-0.14h-0.2
		c-0.08,0-0.18,0.01-0.29,0.02c-0.08,0-0.14,0-0.18,0c-0.12,0-0.27-0.05-0.47-0.16c-0.12,0.29-0.18,0.51-0.18,0.68
		c0,0.21,0.02,0.68,0.06,1.43c0.03,0.17,0.04,0.31,0.04,0.41c0,0.18-0.05,0.3-0.14,0.35l-0.61,0.33c-0.05,0.03-0.1,0.16-0.14,0.39
		s-0.09,0.38-0.16,0.43l-0.29,0.21c0.65,0.38,0.99,0.58,1.01,0.6s0.06,0.1,0.11,0.24c0.03,0.09,0.08,0.38,0.18,0.86
		c0.05,0.85,0.09,1.42,0.12,1.72l-0.47,0.12c-0.03,0.16-0.04,0.29-0.04,0.41c0,0.05,0.07,0.34,0.21,0.88
		c0.01,0.05,0.02,0.12,0.02,0.21c0,0.1-0.01,0.22-0.02,0.35l0.35-0.06c0.03,0.6,0.05,0.99,0.08,1.17c0.01,0.21,0.03,0.68,0.04,1.41
		l0.12,0.49c0,0.07-0.03,0.18-0.1,0.35c-0.23,0.03-0.42,0.08-0.55,0.16l0.61,0.35c-0.01,0.13-0.02,0.25-0.02,0.35
		c0,0.12,0.03,0.3,0.08,0.55c0.06,0.27,0.1,0.58,0.12,0.92c-0.31,0.21-0.51,0.36-0.59,0.47c-0.05,0.05-0.15,0.23-0.29,0.53
		l-0.45,0.18c-0.47,0.29-0.92,0.45-1.37,0.49h-0.02l-0.51-0.14c0.42-0.17,0.65-0.3,0.71-0.38s0.1-0.35,0.13-0.81l0.76-1.25
		l-1.48-1.66l0.06-0.06c0.08-0.09,0.19-0.23,0.33-0.43l-0.16-1.09c0.09-0.13,0.16-0.21,0.2-0.25c0.21-0.22,0.31-0.38,0.31-0.47
		s-0.08-0.19-0.23-0.29c-0.2-0.13-0.31-0.21-0.35-0.25c0.77-0.33,1.15-0.55,1.15-0.68c0-0.07-0.33-0.21-1-0.43l-0.06-0.04
		c0.64-0.38,0.96-0.62,0.96-0.74c0-0.08-0.25-0.52-0.74-1.33c-0.2-0.3-0.29-0.6-0.29-0.9c0-0.07,0.08-0.89,0.25-2.46l0.29-0.18
		l-0.06-1.23c-0.4-0.1-0.61-0.35-0.61-0.74c0-0.09,0.03-0.62,0.1-1.58l0.06-0.96v-3.03c0-0.09,0.07-0.28,0.21-0.57l-0.04-0.78
		l0.02-0.23c0-0.14-0.14-0.28-0.41-0.41c-0.01-0.33-0.02-0.55-0.02-0.68c0-0.2,0-0.36,0-0.51c0.01-0.34,0.02-0.56,0.02-0.66
		c0-0.03,0-0.06,0-0.1c-0.03-0.55-0.04-0.83-0.04-0.84s0.01-0.08,0.04-0.2c0.04-0.12,0.06-0.21,0.06-0.27v-0.04
		c-0.13-1.02-0.22-1.65-0.27-1.89C113.39,74.92,113.2,74.74,112.86,74.5z M115.76,77.14l0.16,0.16h0.21
		c0.01,0.31,0.02,0.59,0.02,0.82c0,0.16-0.01,0.29-0.02,0.41c-0.03,0.25-0.04,0.4-0.04,0.47c0,0.01,0.03,0.23,0.08,0.64v0.02
		c0,0.12-0.11,0.39-0.33,0.82c0.18,0.36,0.28,0.6,0.29,0.7l0.02,0.9l0.08,1.07c0,0.01-0.01,0.09-0.04,0.23
		c-0.01,0.12-0.03,0.29-0.06,0.51c0.23,0.14,0.4,0.23,0.49,0.27c0.7,0.34,1.11,0.56,1.21,0.66c0.04,0.01,0.1,0.09,0.2,0.23
		c0.18-0.14,0.31-0.21,0.39-0.21s0.22,0.04,0.43,0.12c0.14,0.05,0.37,0.08,0.68,0.1c0.39,0,0.61,0.01,0.66,0.04l1.29,0.43
		c0.05,0.01,0.12,0.02,0.2,0.02c0.01,0,0.48-0.07,1.39-0.2l0.74,0.82l0.61-0.29c0.46-0.23,0.75-0.4,0.9-0.51
		c0.09-0.08,0.27-0.25,0.55-0.53l0.72-0.51l0.62-0.68c0.56-0.47,0.89-0.75,0.98-0.84c0.14-0.17,0.36-0.7,0.64-1.58
		c0.18-0.53,0.27-0.92,0.27-1.15c0-0.14-0.01-0.29-0.04-0.45c-0.04-0.27-0.06-0.48-0.06-0.61c0-0.09,0.05-0.23,0.14-0.43
		c-0.31-0.21-0.52-0.42-0.62-0.62c-0.09-0.16-0.18-0.45-0.27-0.88c-0.3-0.23-0.55-0.5-0.76-0.8c-0.14-0.18-0.21-0.3-0.21-0.35
		c0-0.1,0.03-0.23,0.08-0.37c-0.18-0.26-0.38-0.39-0.61-0.39c-0.09,0-0.34,0.03-0.74,0.1c-0.29-0.18-0.48-0.31-0.57-0.39
		c-0.47-0.36-0.77-0.55-0.9-0.57c-0.03-0.01-0.29-0.02-0.78-0.02l-0.41-0.23c-0.17-0.08-0.51-0.12-1.04-0.12
		c-1.32,0-2.21,0.04-2.7,0.12c-0.1,0.03-0.6,0.17-1.48,0.43l-0.53,0.08c-0.12,0.03-0.31,0.13-0.59,0.31
		c-0.36,0.05-0.59,0.16-0.68,0.31c-0.09,0.16-0.14,0.36-0.14,0.62c0,0.1,0.01,0.25,0.02,0.45c-0.61,0.08-1.13,0.23-1.56,0.47
		l1.09,0.29L115.76,77.14z"/>
	<path d="M139.41,80.09c0.16-0.25,0.31-0.42,0.45-0.51c0.1-0.07,0.49-0.17,1.17-0.31c0.49-0.25,0.83-0.4,1-0.45
		c0.12-0.03,0.51-0.07,1.17-0.14l0.62-0.21l0.37-0.04l0.35-0.04h0.76l1.54-0.2c0.46-0.04,0.74-0.1,0.86-0.18
		c0.23-0.17,0.35-0.42,0.35-0.74c0-0.07-0.05-0.27-0.16-0.62l1.02-1.27c0-0.01-0.4-0.14-1.21-0.39c-0.07-0.03-0.26-0.04-0.59-0.04
		c-0.56-0.72-0.89-1.11-1-1.19c-0.13-0.05-0.62-0.14-1.48-0.27h-0.62c-0.29-0.08-0.48-0.12-0.57-0.12c-0.1,0-0.25,0.01-0.45,0.04
		l-0.37-0.47c-0.29,0.1-0.51,0.25-0.66,0.43c-0.13,0.14-0.33,0.27-0.61,0.37c-0.68,0.29-1.24,0.61-1.68,0.96l-0.27,0.18
		c-0.17,0.25-0.28,0.38-0.33,0.41c-0.16,0.09-0.34,0.14-0.55,0.14c-0.08,0-0.32-0.07-0.72-0.21c-0.44-0.1-0.72-0.19-0.82-0.25
		c-0.12-0.08-0.27-0.24-0.45-0.49c0.22-0.17,0.38-0.29,0.47-0.37c0.22-0.2,0.37-0.3,0.45-0.31l0.92-0.21l0.59-0.31l1.25-0.39
		l0.78-0.33h0.8l0.88-0.25l0.37-0.02l0.68-0.12c0.64,0.01,1.04,0.02,1.21,0.02c0.18,0.01,0.53,0.1,1.05,0.27l0.47,0.06
		c0.51,0.09,0.87,0.16,1.07,0.2c0.18,0.01,0.42,0.16,0.7,0.43c-0.22,0.2-0.33,0.36-0.33,0.49c0,0.18,0.08,0.27,0.23,0.27
		c0.1,0,0.25-0.05,0.45-0.16c0.13-0.05,0.31-0.11,0.55-0.18c0.17,0.17,0.26,0.39,0.27,0.66l0.49,0.35c0.03,0.14,0.04,0.23,0.04,0.27
		l-0.06,0.76c0.14,0.57,0.29,0.93,0.43,1.07h0.08c0.04,0.29,0.09,0.6,0.16,0.94c0.04,0.75,0.07,1.26,0.08,1.5
		c-0.3,0.18-0.45,0.36-0.45,0.53c0,0.2,0.18,0.37,0.53,0.53c0.01,0.17,0.02,0.31,0.02,0.43s-0.03,0.34-0.08,0.68
		c-0.01,0.14-0.02,0.29-0.02,0.43c0,0.43,0.07,0.96,0.21,1.6c-0.23,0.23-0.35,0.47-0.35,0.7c0,0.2,0.11,0.45,0.33,0.76
		c0.03,0.05,0.07,0.18,0.14,0.37c0.04,0.09,0.11,0.27,0.21,0.53c-0.14,0.17-0.25,0.33-0.31,0.49c-0.1,0.09-0.31,0.2-0.61,0.31
		l-0.74,0.33l-0.47,0.14c-0.48,0.17-0.75,0.25-0.8,0.25c-0.13,0-0.27-0.07-0.43-0.21l0.29-1.31c-0.38,0.09-0.92,0.29-1.64,0.61
		l-0.57,0.12c-0.34,0.08-0.51,0.12-0.53,0.12l-0.72-0.08l-0.72,0.37l-0.39,0.04l-1.58,0.33l-0.82-0.06
		c-0.4,0.14-0.68,0.21-0.82,0.21c-0.18,0-0.69-0.08-1.52-0.25L137.96,87l-0.61-0.25c-0.46-0.17-0.79-0.34-1.02-0.51
		c-0.2-0.14-0.35-0.39-0.47-0.74l-0.45-0.16c-0.05-0.13-0.11-0.36-0.18-0.7l-0.2-0.84v-0.02c-0.01-0.12,0.07-0.31,0.25-0.57
		c0.14-0.2,0.33-0.53,0.55-1c0.64-0.62,1.06-1.03,1.27-1.21c0.18-0.14,0.59-0.34,1.23-0.61c0.36-0.23,0.59-0.35,0.68-0.35
		C139.14,80.05,139.26,80.06,139.41,80.09z M138.2,84.23c-0.1,0.17-0.2,0.34-0.29,0.53c-0.14,0.23-0.21,0.39-0.2,0.47l0.2,0.37
		l0.55-0.47c0.44,0.31,0.75,0.48,0.92,0.51c0.48,0.13,0.74,0.2,0.78,0.21c0.08,0.05,0.19,0.19,0.33,0.41
		c0.3,0.04,0.5,0.07,0.61,0.08c0.1,0.01,0.19,0.02,0.25,0.02c0.14,0,0.32-0.09,0.53-0.27c0.18,0.13,0.34,0.2,0.47,0.2
		c0.03,0,0.17-0.08,0.43-0.25l0.55,0.12l1.05-0.37l0.51-0.23l0.43,0.08l0.74-0.31l0.86-0.33c0.22-0.34,0.36-0.53,0.41-0.59
		c0.12-0.12,0.34-0.22,0.68-0.31l0.12-0.62c0.23-0.13,0.38-0.31,0.43-0.55c-0.18-0.13-0.31-0.27-0.39-0.41
		c0.01-0.22,0.02-0.38,0.02-0.49v-0.31c-0.01-0.35-0.03-0.65-0.04-0.9c-0.01-0.08-0.02-0.15-0.02-0.21c0-0.16,0.05-0.38,0.16-0.68
		c-0.12-0.01-0.27-0.09-0.45-0.23l-0.84,0.02l-0.76-0.04l-0.59,0.02h-0.37c-0.05,0-0.25-0.1-0.59-0.31l-0.43,0.14
		c-0.52,0-0.91,0.04-1.15,0.12c-0.16,0.07-0.29,0.1-0.39,0.1c-0.03,0-0.18-0.04-0.45-0.12c-0.01,0-0.03,0-0.04,0
		c-0.07,0-0.27,0.12-0.62,0.35c-0.05,0.04-0.39,0.17-1.02,0.39c-0.83,0.36-1.43,0.71-1.8,1.04c-0.04,0.04-0.18,0.23-0.43,0.59
		c-0.08,0.12-0.31,0.23-0.68,0.33c-0.05,0.09-0.08,0.16-0.08,0.21c0,0.04,0.05,0.12,0.16,0.23l0.14,1.05
		C137.91,83.87,138.01,84.02,138.2,84.23z"/>
	<path class="st1" d="M160.29,75.27c0.66-0.23,1.2-0.6,1.62-1.09c-0.66-0.17-1-0.46-1-0.86c0-0.1,0.01-0.23,0.02-0.39l-0.74,0.18
		c-0.14-0.25-0.32-0.45-0.53-0.61c-0.1-0.09-0.3-0.34-0.59-0.74l0.08-0.57l-0.37-0.21l0.33-0.86h-0.1C159,69.98,159,69.87,159,69.78
		c0-0.3,0.16-0.63,0.49-1h0.41c0.12-0.25,0.2-0.4,0.25-0.45l0.59-0.49l0.59-0.61c0.07-0.04,0.22-0.1,0.47-0.18l0.2-0.43l0.68-0.08
		c0.18-0.27,0.37-0.45,0.57-0.53c0.08-0.03,0.37-0.11,0.88-0.25l0.51-0.23l0.35-0.14c0.77-0.42,1.26-0.63,1.46-0.64
		c0.08,0.05,0.31,0.36,0.68,0.92l0.92-0.96c0.14-0.14,0.35-0.21,0.62-0.21c0.3,0,0.67,0.21,1.11,0.64c0.31,0.21,0.48,0.34,0.51,0.39
		c0.03,0.04,0.07,0.22,0.12,0.55c0.01,0.1,0.13,0.33,0.35,0.66c-0.1,0.23-0.21,0.35-0.33,0.35c-0.07,0-0.32-0.25-0.76-0.74
		l-1.07-0.55l-0.37-0.23c-0.17,0-0.27,0.35-0.31,1.04l-0.49-0.27l-0.23,0.39c-0.05,0.01-0.09,0.02-0.12,0.02
		c-0.09,0-0.27-0.05-0.55-0.14c-0.09-0.04-0.16-0.06-0.21-0.06c-0.09,0-0.23,0.03-0.43,0.1c-0.12,0.04-0.31,0.08-0.57,0.14
		c-0.23-0.12-0.41-0.18-0.53-0.18c-0.07,0-0.27,0.08-0.61,0.23l-0.66,0.2l-0.41,0.21c-0.25,0.09-0.42,0.17-0.53,0.23
		c-0.08,0.05-0.38,0.32-0.92,0.8c-0.51,0.38-0.77,0.58-0.79,0.6s-0.08,0.21-0.17,0.56c-0.1,0.42-0.18,0.71-0.23,0.88
		c0.21,0.27,0.36,0.44,0.47,0.51c0.18,0.14,0.31,0.36,0.37,0.64c0.26,0.13,0.43,0.23,0.51,0.29c0.31,0.2,0.59,0.33,0.82,0.41
		c0.12,0.03,0.53,0.13,1.23,0.31l0.49,0.02l0.62,0.21c0.82,0,1.38,0.02,1.68,0.06c0.2,0.03,0.37,0.04,0.53,0.04
		c0.12,0,0.46-0.11,1.02-0.33l1.13-0.06c0.39-0.1,0.61-0.16,0.64-0.16c0.13,0,0.32,0.07,0.57,0.21c-0.14,0.26-0.27,0.6-0.39,1.02
		c-0.05,0.21-0.17,0.34-0.35,0.41c-0.79,0.31-1.21,0.48-1.26,0.5s-0.19,0.13-0.42,0.34c-0.23-0.13-0.42-0.27-0.55-0.41
		c-0.09-0.1-0.25-0.19-0.49-0.25l-0.29,0.2c-0.29-0.56-0.48-0.84-0.57-0.84c-0.08,0-0.18,0.28-0.31,0.84
		c-0.27-0.55-0.53-0.82-0.76-0.82c-0.09,0-0.17,0.03-0.23,0.1L164,74.66c-0.26-0.08-0.4-0.12-0.41-0.12c-0.14,0-0.36,0.07-0.66,0.2
		l0.21,0.43l-0.08,0.08c-0.1,0-0.19,0-0.25,0c-0.21,0-0.37,0.03-0.49,0.08c-0.04,0.01-0.25,0.16-0.64,0.45
		c-0.6,0.33-0.92,0.51-0.96,0.55c-0.03,0.01-0.16,0.21-0.39,0.59c-0.21,0.18-0.41,0.4-0.61,0.64c-0.17,0.21-0.44,0.37-0.82,0.49
		c-0.05,0.29-0.22,0.7-0.51,1.23c-0.09,0.21-0.18,0.44-0.25,0.68c-0.01,0.09-0.04,0.4-0.08,0.94l-0.12,0.43l0.18,0.49
		c0.05,0.39,0.18,0.77,0.37,1.13c0.04,0.08,0.07,0.16,0.1,0.23c0.13,0.31,0.34,0.57,0.64,0.76c0.12,0.31,0.21,0.5,0.27,0.55
		l0.57,0.51c0.61,0.62,0.99,0.99,1.13,1.09c0.1,0.08,0.44,0.21,1.02,0.39c0.1,0.03,0.31,0.04,0.62,0.04l0.82,0.21h0.61l0.66,0.04
		l0.27-0.02l0.82-0.02l0.41-0.18l0.57-0.18l0.62-0.31l0.96-0.29c0.22-0.09,0.37-0.14,0.45-0.14c0.05,0,0.11,0,0.18,0
		c0.14-0.23,0.23-0.36,0.27-0.39l1.35-0.88c0.13-0.08,0.4-0.41,0.82-1c0.42-0.57,0.62-1.23,0.62-1.97c0-0.43-0.24-0.79-0.72-1.07
		c-0.38-0.22-0.57-0.34-0.59-0.35l-0.27-0.37l-0.43-0.27l-0.66-0.59l-0.66-0.21l-0.7-0.29l-0.29-0.02L167.61,78l-0.72,0.21
		c-0.44,0.07-0.71,0.13-0.8,0.2c-0.16,0.04-0.46,0.47-0.92,1.29c-0.04,0.09-0.14,0.27-0.31,0.55l0.23,0.51
		c0,0.3-0.22,0.45-0.66,0.45c-0.09,0-0.19-0.01-0.29-0.02c-0.1-0.14-0.32-0.3-0.64-0.47c-0.21-0.1-0.31-0.29-0.31-0.55
		c0-0.27,0.08-0.51,0.25-0.71s0.54-0.53,1.11-0.99l0.74-0.64l1.19-0.47l0.49-0.27l0.57-0.16l0.51-0.2l0.62-0.08l0.47-0.06l0.68,0.16
		l0.33,0.04l0.61,0.23c0.34,0.12,0.62,0.25,0.86,0.41c0.04,0.66,0.21,1,0.51,1c0.07,0,0.13-0.04,0.2-0.12v-0.43
		c0.26,0.16,0.43,0.26,0.51,0.31c0.48,0.31,0.91,0.54,1.29,0.68c0.27,0.13,0.42,0.2,0.43,0.2c0.16,0,0.37-0.05,0.65-0.16
		s0.51-0.22,0.69-0.35c0.38-0.26,0.64-0.42,0.78-0.49c0.42-0.2,0.61-0.64,0.59-1.33l0.12-0.72c0.01-0.2-0.16-0.47-0.51-0.82
		c-0.18-0.18-0.29-0.36-0.31-0.55c0.17-0.14,0.59-0.31,1.25-0.51l0.33,0.57c0.48,0.12,0.8,0.24,0.96,0.37l0.12,0.47l0.53,0.08
		c-0.03,0.27-0.04,0.46-0.04,0.55c-0.04,0.79-0.16,1.33-0.35,1.62c-0.01,0.01-0.2,0.16-0.57,0.43c-0.18,0.35-0.59,0.71-1.21,1.07
		l-0.31,0.23c-0.26,0.03-0.42,0.05-0.47,0.06c-0.04,0.03-0.23,0.15-0.57,0.37c-0.75,0.18-1.19,0.32-1.31,0.41
		c-0.17,0.13-0.25,0.29-0.25,0.49c0,0.13,0.08,0.34,0.23,0.62c-0.23,0.17-0.36,0.29-0.37,0.37c-0.05,0.46-0.14,0.81-0.27,1.05
		l-0.76-0.08c-0.01,0.23,0.08,0.47,0.29,0.7c-0.18,0.2-0.42,0.4-0.7,0.62l-0.45,0.47l-0.76,0.39c-0.1,0.07-0.25,0.24-0.43,0.53
		c-0.07,0-0.12,0-0.16,0c-0.05,0-0.22,0.05-0.51,0.16l-0.08,0.02l-0.27,0.18l-0.72,0.31c-0.3,0.23-0.83,0.51-1.6,0.84l-1.02,0.27
		l-0.62,0.23l-1.58,0.21c-1.13,0.21-1.71,0.31-1.72,0.31c-0.13,0-0.37-0.08-0.72-0.23c-0.17,0.21-0.31,0.31-0.43,0.31
		c-0.1,0-0.27-0.01-0.49-0.04c-0.07-0.01-0.16-0.03-0.29-0.04c-0.44-0.04-0.72-0.11-0.82-0.21c-0.34-0.34-0.58-0.55-0.72-0.64
		l-0.21,0.45c-0.43-0.16-0.8-0.37-1.11-0.64s-0.59-0.52-0.84-0.74c-0.47-0.62-0.7-0.96-0.7-1.02c0-0.01,0.05-0.29,0.14-0.84
		l-0.04-0.06l-0.08-0.2c-0.5-0.23-0.75-0.36-0.78-0.39c-0.04-0.04-0.06-0.08-0.06-0.14v-0.33l-0.02-0.21
		c0.38-0.05,0.57-0.17,0.57-0.35c0-0.21-0.14-0.31-0.43-0.31c-0.05,0-0.11,0-0.18,0c-0.1-0.16-0.16-0.36-0.16-0.62
		c0-0.1,0.07-0.33,0.21-0.66l0.12-0.43l0.25-0.45c0.12-0.46,0.26-0.79,0.43-1.02c0.25-0.3,0.38-0.46,0.39-0.49
		c0.17-0.31,0.27-0.48,0.29-0.49l0.31-0.21c0.03-0.03,0.1-0.12,0.23-0.29c0.17-0.22,0.48-0.44,0.92-0.66
		c0.16-0.09,0.29-0.25,0.41-0.49c0.13-0.29,0.2-0.44,0.21-0.45l0.47-0.41C160.18,75.66,160.26,75.49,160.29,75.27z"/>
	<path d="M183.06,74.54c-0.2-0.12-0.29-0.25-0.29-0.41c0-0.07,0.08-0.39,0.23-0.98c0.05-0.35,0.21-1,0.49-1.93l0.84-0.06
		c-0.01-0.16-0.1-0.41-0.27-0.76c-0.04-0.08-0.06-0.18-0.06-0.29c0-0.16,0.16-0.68,0.49-1.58c0.1-0.53,0.27-1.02,0.49-1.46
		c0.16-0.26,0.37-0.62,0.64-1.07c0.18,0.03,0.3,0.05,0.35,0.08c0.2,0.07,0.31,0.1,0.33,0.1c0.09,0,0.22-0.07,0.39-0.21
		c0.17-0.03,0.28-0.06,0.33-0.12c0.05-0.05,0.1-0.16,0.14-0.31l-0.47-0.06l-0.2-0.7c0-0.13,0.2-0.39,0.59-0.78
		c0.09-0.09,0.2-0.22,0.31-0.39c0.17-0.29,0.29-0.46,0.35-0.53c0.22-0.22,0.38-0.46,0.47-0.7l0.14-0.14
		c0.23-0.34,0.42-0.56,0.57-0.66c0.08-0.06,0.34-0.25,0.8-0.55l0.06,0.06l0.55-0.27l0.04-0.45l2.52-2.01
		c0.09-0.08,0.29-0.2,0.59-0.35l0.53-0.35l0.49-0.14c0.51-0.35,0.79-0.53,0.86-0.53c0.12,0,0.31,0.07,0.57,0.2l0.27-0.72l0.8,0.16
		l0.06-0.37c0.43-0.13,0.72-0.22,0.86-0.27c0.47-0.18,0.94-0.29,1.41-0.33l0.59-0.18c0.46-0.09,0.71-0.15,0.76-0.18
		c0.12-0.05,0.27-0.17,0.47-0.35c0.18,0.01,0.34,0.02,0.47,0.02c0.16,0,0.48-0.08,0.98-0.25c0.2-0.06,0.41-0.1,0.64-0.1
		c0.2,0,0.38,0.03,0.57,0.08c0.14,0.04,0.23,0.05,0.27,0.04l2.6-0.08c0.5,0.03,0.95,0.27,1.37,0.72c0.29,0.31,0.46,0.47,0.53,0.47
		c0.23,0,0.46-0.27,0.66-0.82c0.42,0.27,0.77,0.41,1.05,0.41c0.09,0,0.18-0.01,0.27-0.02l0.53-0.12l0.62,0.21
		c1.72,0.44,2.83,0.77,3.32,1v0.59h-0.02c-0.21,0.21-0.34,0.35-0.39,0.41c-0.48,0.51-0.8,0.76-0.96,0.76
		c-0.13,0-0.34-0.08-0.64-0.25c-0.74-0.3-1.59-0.62-2.56-0.98l-0.25-0.64c-0.26,0.05-0.43,0.09-0.51,0.12
		c-0.21,0.07-0.33,0.1-0.37,0.1c-0.05,0-0.48-0.14-1.27-0.41c-0.23-0.09-0.38-0.18-0.45-0.27c-0.07-0.09-0.12-0.18-0.18-0.27
		c-0.43,0.17-0.7,0.25-0.82,0.25h-1.11h-1.56l-0.49-0.06c-0.59,0.09-1.04,0.2-1.35,0.33l-1.19,0.14c-0.51,0.1-0.91,0.18-1.19,0.23
		c-0.16,0.03-0.41,0.14-0.76,0.33l-0.98,0.45l-0.7,0.49c-1.42,0.59-2.38,1.21-2.87,1.88c-0.33,0.09-0.71,0.27-1.15,0.55
		c0,0.16-0.03,0.31-0.08,0.45c-0.26,0.13-0.61,0.41-1.04,0.84l-0.47,0.43c-0.39,0.53-0.64,0.83-0.76,0.9
		c-0.12,0.08-0.23,0.12-0.33,0.12c-0.05,0-0.13-0.01-0.23-0.02c0.08,0.14,0.12,0.23,0.12,0.27s-0.32,0.58-0.96,1.62
		c-0.5,0.52-0.78,0.84-0.86,0.96c-0.04,0.08-0.19,0.42-0.45,1.04l-0.41,0.98l-0.18,0.57c-0.36,0.64-0.59,1.11-0.68,1.43
		c-0.05,0.21-0.14,0.6-0.25,1.17c-0.2,0.77-0.31,1.19-0.33,1.27c-0.04,0.18-0.25,0.31-0.64,0.39c0.04,0.34,0.19,0.62,0.45,0.84
		c-0.13,0.34-0.2,0.56-0.2,0.66c0,0.29,0.05,0.64,0.16,1.07c0.01,0.04,0.02,0.07,0.02,0.08c0,0.12-0.06,0.2-0.18,0.25l-1.54,0.59
		c-0.12,0.04-0.18,0.11-0.18,0.21c0,0.05,0.03,0.12,0.1,0.21c0.2,0.3,0.32,0.52,0.37,0.66c0.1,0.27,0.17,0.42,0.2,0.43
		c0.29,0.23,0.58,0.48,0.88,0.72l0.33,0.9c0.09,0.2,0.15,0.43,0.18,0.7h-0.12l0.12,0.66l0.27,0.08c0.14,0.25,0.21,0.45,0.21,0.61
		h0.06c0.04,0.26,0.07,0.43,0.08,0.51c0.07,0.4,0.12,0.65,0.18,0.74l0.35,0.7c0.36,0.95,0.55,1.51,0.55,1.68
		c0,0.13-0.13,0.2-0.39,0.2l0.2,0.49c0.26-0.01,0.46,0.01,0.61,0.06c0.13,0.05,0.25,0.12,0.37,0.2c0.26,0.3,0.51,0.61,0.74,0.92
		l0.59,0.53l0.45,0.57c0.52,0.29,0.88,0.51,1.07,0.66c0.01,0.31,0.12,0.54,0.31,0.68c0.25,0.18,0.56,0.34,0.94,0.47l0.88,0.53
		l0.66,0.31l0.61,0.31l0.64,0.25l0.45,0.33c0.13,0.07,0.26,0.18,0.39,0.33c0.18-0.18,0.36-0.27,0.53-0.27c0.03,0,0.78,0.2,2.27,0.61
		c1.61,0.01,2.46,0.02,2.55,0.02s0.19,0.04,0.3,0.12c0.22,0.12,0.41,0.19,0.57,0.21c0.18-0.1,0.29-0.19,0.33-0.25
		c0.1-0.09,0.18-0.14,0.23-0.14l0.23,0.02l0.14,0.02l1.58-0.21c0.25-0.01,0.83-0.14,1.76-0.39c0.48,0.14,0.77,0.21,0.86,0.21
		c0.2,0,0.52-0.15,0.98-0.45l0.92-0.21c0.56-0.18,0.93-0.33,1.11-0.43l0.45,0.1c0.17,0.03,0.72-0.12,1.66-0.43
		c1.08-0.36,1.65-0.56,1.7-0.59c0.04-0.03,0.14-0.15,0.31-0.37l0.74-0.37c0.4-0.23,0.78-0.35,1.13-0.35c0.08,0,0.23,0.04,0.47,0.12
		c0.01-0.34,0.07-0.55,0.18-0.62c0.07-0.07,0.29-0.18,0.66-0.33c0.42-0.25,0.65-0.37,0.7-0.37c0.09,0,0.23,0.06,0.41,0.18
		c-0.05,0.69-0.19,1.22-0.41,1.6c-0.12,0.2-0.21,0.45-0.27,0.76c-0.04,0.12-0.12,0.21-0.23,0.29c-0.1,0.07-0.65,0.18-1.64,0.35
		c-0.46,0.2-0.76,0.31-0.92,0.33c-0.09,0.03-0.44,0.11-1.05,0.25l-0.86,0.18l-0.92,0.25l-0.82,0.12c-0.81,0.25-1.28,0.37-1.41,0.37
		c-0.14,0-0.34-0.01-0.61-0.02c-0.18,0-0.45-0.01-0.8-0.02v0.12c0,0.25-0.16,0.37-0.47,0.37c-0.05,0-0.1-0.01-0.16-0.02
		c-0.25-0.03-0.38-0.04-0.39-0.04s-0.08,0.01-0.21,0.04l-2.4,0.55c-0.51,0.1-1.09,0.17-1.76,0.2l-1.48,0.08h-0.08
		c-0.12,0.18-0.28,0.28-0.49,0.29c-0.6,0.03-1.11,0.04-1.54,0.04c-0.27,0-0.71-0.12-1.31-0.35c-0.13-0.05-0.29-0.08-0.49-0.08
		c-0.17,0-0.34,0.12-0.53,0.35l-0.96-0.04c-0.23-0.36-0.46-0.55-0.66-0.55h-0.06c-0.27,0-0.51,0.01-0.72,0.02
		c-0.21,0.03-0.33,0.04-0.35,0.04c-0.5,0-1.11-0.2-1.86-0.61c-0.56-0.31-1.18-0.61-1.88-0.9c-1.08-0.68-1.8-1.1-2.15-1.27
		l-0.14-0.35h0.43c0-0.1,0-0.2,0-0.27c0-0.43-0.16-0.66-0.49-0.7c-0.2,0.22-0.36,0.33-0.49,0.33c-0.07,0-0.29-0.16-0.68-0.49
		l-1.33-0.92l-0.41-0.57l-0.2-0.21l-0.68-1.02c-1.02-1.38-1.69-2.93-2.03-4.65l0.39-0.23v-0.37l-0.43-0.29
		c0-0.3-0.06-0.58-0.18-0.84l-0.12-0.41c-0.14-0.22-0.22-0.36-0.23-0.43c-0.01-0.05-0.02-0.3-0.02-0.74l-0.08-0.86l0.12-0.39
		c-0.13-0.38-0.2-0.62-0.2-0.74c0-0.3,0.1-0.59,0.29-0.86C182.93,75.24,182.98,75,183.06,74.54z"/>
	<path d="M222.26,81.55c0-0.86,0.05-1.48,0.16-1.88c0.1-0.34,0.29-0.85,0.55-1.54c0.53-0.99,0.84-1.55,0.92-1.68
		c0.08-0.12,0.38-0.34,0.9-0.68c0.01-0.01,0.11-0.21,0.29-0.59c0.12-0.21,0.21-0.33,0.29-0.37c0.14-0.12,0.64-0.38,1.5-0.8
		c0.27-0.13,0.59-0.38,0.94-0.74c0.05-0.05,0.83-0.36,2.34-0.92c0.78-0.3,1.92-0.45,3.42-0.45c0.3,0,0.69,0.05,1.17,0.16l0.08,0.41
		c0.18,0.08,0.34,0.17,0.47,0.27c0.2-0.07,0.35-0.23,0.47-0.51c0.72,0.16,1.34,0.42,1.88,0.78c0.4,0.25,0.63,0.4,0.68,0.47
		c0.03,0.04,0.16,0.27,0.39,0.68c0.26,0.4,0.7,0.61,1.33,0.62c0.31,0.52,0.51,0.91,0.6,1.15s0.17,0.66,0.24,1.25
		c0.08,0.6,0.14,1.07,0.18,1.41h-0.31v0.23l-0.39,0.45c0.05,0.22,0.23,0.43,0.55,0.62c-0.04,0.57-0.08,0.96-0.12,1.17
		c-0.03,0.09-0.12,0.32-0.29,0.68c-0.48,1.13-0.82,1.86-1.02,2.17c-0.69,0.83-1.32,1.34-1.89,1.52l-1.05,0.53l-1,0.47
		c-0.52,0.29-0.83,0.44-0.92,0.46s-0.72,0.06-1.89,0.13l-1.37,0.29h-1.39l-0.62,0.08c-1.15-0.2-1.86-0.3-2.15-0.31
		c-0.18-0.21-0.32-0.33-0.41-0.37c-0.03-0.01-0.28-0.06-0.76-0.14c-0.26-0.05-0.77-0.33-1.54-0.84c-0.12-0.07-0.35-0.2-0.7-0.39
		c-0.08-0.23-0.13-0.4-0.16-0.49c-0.05-0.14-0.1-0.24-0.16-0.29c-0.01,0-0.15-0.09-0.41-0.27c-0.01,0-0.06-0.06-0.14-0.18
		c-0.29-0.46-0.43-0.91-0.43-1.37c0-0.22,0.14-0.43,0.41-0.62c-0.12-0.21-0.32-0.38-0.61-0.51L222.26,81.55z M224.41,81.16v0.2
		l0.18,0.18c0.13-0.12,0.26-0.18,0.39-0.2c0.1,0.44,0.2,0.78,0.27,1.02c0.07,0.14,0.4,0.71,1.02,1.7c0.01,0.03,0.02,0.07,0.02,0.12
		c0,0.12-0.07,0.31-0.2,0.57c0.05,0.18,0.23,0.28,0.53,0.29c0.13-0.13,0.24-0.2,0.33-0.2c0.08,0,0.65,0.27,1.72,0.82
		c0.46,0.22,0.92,0.33,1.39,0.33h1.15l0.59,0.14c0.25,0.07,0.46,0.1,0.64,0.1c0.3,0,0.64-0.05,1.02-0.14
		c0.25-0.07,0.61-0.14,1.07-0.23c0.13-0.04,0.57-0.32,1.33-0.84c0.51-0.17,0.79-0.29,0.86-0.35c0.09-0.1,0.34-0.49,0.74-1.15
		l0.49-0.98c0.33-0.31,0.51-0.51,0.57-0.59c0.05-0.09,0.08-0.21,0.08-0.37c-0.21-0.31-0.31-0.52-0.29-0.62v-0.02l0.08-0.39
		c0.03-0.6,0.1-1.09,0.23-1.46c-0.1-0.25-0.23-0.64-0.37-1.17l-0.31-1.02c-0.03-0.13-0.05-0.4-0.06-0.8l-0.08-0.08h-0.47
		c-0.14-0.27-0.44-0.68-0.88-1.23c-0.26-0.33-0.41-0.5-0.44-0.54s-0.16-0.09-0.38-0.19c-0.18-0.08-0.51-0.21-0.98-0.39
		c-0.13-0.46-0.34-0.68-0.62-0.68c-0.08,0-0.28,0.07-0.61,0.2c-0.4-0.1-0.63-0.16-0.68-0.16c-0.68,0-1.12,0.01-1.33,0.04
		c-0.22,0.01-0.56,0.16-1.02,0.45l-0.41-0.29c-0.2,0.26-0.34,0.42-0.45,0.47l-0.84,0.43l-0.14,0.16l-2.34,1.97l-0.18,0.14
		c-0.03,0.36-0.07,0.59-0.12,0.68l-0.39,0.68c-0.13,0.36-0.29,0.67-0.49,0.92c0.01,0.1,0.02,0.2,0.02,0.27
		c0,0.3-0.23,0.54-0.68,0.72c0,0.04,0.05,0.19,0.16,0.45c0.35,0.25,0.53,0.41,0.53,0.49C225.05,80.74,224.84,80.93,224.41,81.16z"/>
	<path d="M244.96,85.19v-0.23c0.21-0.17,0.35-0.28,0.43-0.33c0.51-0.36,0.86-0.66,1.05-0.88c0.17-0.17,0.38-0.33,0.62-0.49
		c0.44,0.35,0.83,0.6,1.15,0.74c0.42,0.2,0.7,0.37,0.86,0.53c0.25,0.26,0.37,0.46,0.37,0.59c0,0.07-0.12,0.36-0.37,0.88
		c-0.12,0.25-0.63,0.64-1.54,1.19c-0.21-0.2-0.34-0.33-0.41-0.41c-0.23-0.25-0.55-0.51-0.94-0.8c-0.08-0.05-0.24-0.27-0.49-0.64
		C245.36,85.31,245.11,85.27,244.96,85.19z"/>
</g>
<g>
</g>
<g>
</g>
<g>
</g>
<g>
</g>
<g>
</g>
</svg>
