<?xml version="1.0" encoding="utf-8"?>
<!-- Generator: Adobe Illustrator 25.0.0, SVG Export Plug-In . SVG Version: 6.00 Build 0)  -->
<svg version="1.1" id="Layer_1" xmlns="http://www.w3.org/2000/svg" xmlns:xlink="http://www.w3.org/1999/xlink" x="0px" y="0px"
	 viewBox="0 0 283.46 141.73" style="enable-background:new 0 0 283.46 141.73;" xml:space="preserve">
<style type="text/css">
	.st0{fill:none;}
</style>
<g>
	<rect x="12.67" y="22.84" class="st0" width="258.13" height="96.05"/>
	<path d="M27.55,81.87c-0.08-0.29-0.12-0.52-0.14-0.7c-0.01-0.18-0.02-0.34-0.02-0.47c0-0.86,0.1-1.59,0.31-2.21
		c0.21-0.61,0.52-1.13,0.94-1.54c0.1-0.1,0.37-0.26,0.8-0.47c0.43-0.21,1-0.46,1.7-0.74c0.49-0.23,0.89-0.51,1.19-0.84
		c0.3-0.33,0.46-0.72,0.49-1.19c0.08-0.36,0.23-0.78,0.47-1.25c0.23-0.47,0.51-0.98,0.82-1.52c0.1-0.16,0.42-1.05,0.94-2.7
		s1.25-4.05,2.19-7.23c0.26-0.96,0.52-1.8,0.78-2.5c0.26-0.7,0.48-1.3,0.66-1.8c0.83-2.21,1.52-3.67,2.05-4.36
		c0.53-0.69,0.93-1.26,1.19-1.7v-0.2l-1.21-1.91l1.52-1.76l1.96-0.39c0.39-0.05,0.75-0.42,1.07-1.09c0.33-0.68,0.89-1.42,1.7-2.23
		c0.18-0.05,0.48-0.21,0.88-0.49c0.4-0.27,0.92-0.66,1.54-1.15c0.55-0.44,1.02-0.77,1.41-0.98c0.39-0.21,0.69-0.31,0.9-0.31
		c0.7,0,1.21,0.14,1.52,0.43c0.31,0.29,0.47,0.66,0.47,1.13c0,0.57-0.3,1.41-0.9,2.5c-0.6,1.09-0.9,1.93-0.9,2.5
		c0,0.26,0.06,0.48,0.18,0.64c0.12,0.17,0.25,0.28,0.41,0.33l4.68,2.54c0.26,0.1,0.49,0.51,0.7,1.23c0.21,0.72,0.38,1.7,0.51,2.95
		c0.16,1.04,0.28,1.91,0.37,2.6c0.09,0.69,0.14,1.24,0.14,1.66c-0.18,1.12-0.36,2.25-0.55,3.4c0.26,1.46,0.54,2.99,0.86,4.61
		c-0.16,1.54-0.32,3.1-0.51,4.68c0,0.16,0.03,0.29,0.1,0.41c0.06,0.12,0.16,0.19,0.29,0.21c0.44,0.03,0.77,0.14,0.99,0.35
		c0.22,0.21,0.33,0.5,0.33,0.86c0,0.47-0.07,0.84-0.21,1.11c-0.14,0.27-0.34,0.49-0.6,0.64c-0.34,0.21-0.6,0.39-0.8,0.55
		s-0.33,0.29-0.41,0.39l0.51,2.42l-0.7,5.55c0,0.47-0.04,1.07-0.12,1.8s-0.19,1.58-0.35,2.54c-0.26,0.7-0.46,1.29-0.58,1.76
		c-0.13,0.47-0.19,0.78-0.19,0.94c0.13,0.44,0.25,0.91,0.35,1.41c-0.16,0.7-0.32,1.41-0.49,2.11c-0.17,0.7-0.33,1.39-0.49,2.07
		c-0.29,0.91-0.66,1.58-1.13,2.01s-1.01,0.65-1.64,0.65c-0.34,0-0.59-0.15-0.76-0.45c-0.17-0.3-0.25-0.75-0.25-1.35
		c0-0.26,0.04-0.64,0.14-1.13c0.09-0.5,0.14-0.87,0.14-1.13c0-0.18-0.03-0.43-0.08-0.74c-0.05-0.31-0.08-0.59-0.08-0.82
		c0-0.73,0.07-1.9,0.21-3.5c0.14-1.6,0.21-2.81,0.21-3.62c-0.13-0.44-0.26-0.9-0.39-1.37c0.08-0.5,0.13-1,0.16-1.5
		c0.03-0.51,0.01-0.98-0.04-1.43l0.59-1.06l-0.51-3.63l-0.27-0.12c-0.16,0-0.39,0.06-0.69,0.18s-0.67,0.31-1.11,0.57
		c-0.31,0.1-0.8,0.21-1.47,0.33c-0.66,0.12-1.54,0.19-2.64,0.21c-0.47,0.23-0.91,0.44-1.33,0.62c-0.6,0.13-1.36,0.36-2.27,0.68
		s-1.97,0.72-3.17,1.19c-0.7,0.34-1.35,0.61-1.94,0.8c-0.59,0.2-1.08,0.29-1.47,0.29c-0.31,0-0.57,0.12-0.78,0.35
		s-0.38,0.57-0.51,1.02c-0.08,0.42-0.27,0.99-0.57,1.72c-0.3,0.73-0.7,1.64-1.19,2.74c-0.1,0.29-0.25,0.73-0.43,1.33
		s-0.39,1.34-0.62,2.23c-0.16,0.34-0.34,0.76-0.55,1.27c-0.21,0.51-0.44,1.1-0.7,1.78c0,0.31-0.03,0.7-0.1,1.15
		s-0.16,0.98-0.29,1.58c-0.13,0.36-0.31,0.83-0.53,1.39c-0.22,0.56-0.5,1.18-0.84,1.86c-0.21,0.42-0.51,0.72-0.9,0.92
		s-0.9,0.29-1.52,0.29c-0.44,0-0.79-0.15-1.04-0.45c-0.25-0.3-0.37-0.76-0.37-1.39c0-0.68,0.08-1.45,0.23-2.32
		c0.16-0.87,0.4-1.83,0.74-2.87c0.37-1.38,0.68-2.5,0.94-3.36c0.26-0.86,0.4-1.5,0.43-1.91c0.08-0.18,0.2-0.51,0.35-0.98
		c0.16-0.47,0.34-1.04,0.55-1.72c0.23-0.65,0.46-1.39,0.66-2.23l-0.2-0.31l-1.25,0.2c-0.29-0.03-0.5-0.14-0.63-0.35
		c-0.13-0.21-0.2-0.48-0.2-0.82c0-0.18,0.03-0.38,0.08-0.61C27.37,82.45,27.45,82.18,27.55,81.87z M41.75,74.67
		c0.6,0,1.48-0.14,2.66-0.43s2.06-0.43,2.66-0.43c0.36,0.08,0.73,0.14,1.09,0.2c0.65-0.13,1.29-0.28,1.92-0.45
		c0.62-0.17,1.26-0.32,1.92-0.45c0.26-0.05,0.46-0.15,0.59-0.29c0.13-0.14,0.2-0.33,0.2-0.57c-0.05-0.78-0.08-1.31-0.08-1.6
		c0-0.49,0.03-1.05,0.1-1.66c0.06-0.61,0.16-1.24,0.29-1.89l-0.47-1.76l0.16-1.6c-0.1-0.57-0.19-1.11-0.25-1.62
		c-0.07-0.51-0.07-0.93-0.02-1.27c-0.05-0.1-0.14-0.27-0.27-0.51c-0.13-0.23-0.27-0.48-0.43-0.74c-0.26-0.44-0.53-0.87-0.8-1.27
		s-0.54-0.81-0.8-1.23c-0.36-0.49-0.76-0.86-1.17-1.09s-0.85-0.35-1.29-0.35c-0.52,0-1.05,0.42-1.6,1.25s-1.05,2.1-1.52,3.79
		c-0.08,0.21-0.29,0.64-0.64,1.29s-0.85,1.5-1.5,2.54c-0.1,0.99-0.46,2.22-1.05,3.69s-1.43,3.2-2.5,5.18
		c-0.13,0.18-0.2,0.34-0.21,0.47s-0.02,0.27-0.02,0.43c0,0.18,0.05,0.32,0.14,0.41s0.23,0.14,0.41,0.14c0.26,0,0.68-0.03,1.27-0.08
		C41.06,74.7,41.49,74.67,41.75,74.67z"/>
	<path d="M62.55,85.47c0.23-0.26,0.47-0.58,0.7-0.96c0.23-0.38,0.55-0.79,0.94-1.23l2.58-2.27c0.1-0.08,0.16-0.18,0.18-0.31
		c0.01-0.13,0.02-0.31,0.02-0.55c-0.03-0.34-0.07-0.61-0.12-0.82c0-0.6,0.12-1.6,0.35-3.01s0.44-2.25,0.62-2.54l-0.23-0.74
		c0.34-1.74,0.81-3.65,1.43-5.72c0.61-2.07,1.31-4.32,2.09-6.74c0.26-0.42,0.53-0.94,0.82-1.58c0.29-0.64,0.61-1.36,0.98-2.17
		c0.44-1.35,1.03-2.77,1.76-4.26c0.73-1.48,1.55-3.01,2.46-4.57c1.22-2.06,2.31-3.61,3.26-4.65c0.95-1.04,1.8-1.56,2.56-1.56
		c1.51,0,2.54,0.29,3.11,0.88c0.56,0.59,0.84,1.69,0.84,3.3c0,0.42-0.07,1.06-0.21,1.93c-0.14,0.87-0.21,1.53-0.21,1.97
		c0,0.44-0.14,1.07-0.43,1.88c-0.29,0.81-0.43,1.55-0.43,2.23c-0.03,0.21-0.09,0.42-0.2,0.62l0.04,0.55
		c-0.1,0.37-0.26,0.81-0.47,1.33c-0.21,0.52-0.48,1.15-0.82,1.88c-0.18,0.65-0.42,1.41-0.7,2.27c-0.29,0.86-0.62,1.8-1.02,2.81
		c-0.16,0.26-0.36,0.58-0.61,0.96c-0.25,0.38-0.51,0.8-0.8,1.27c-0.08,0.34-0.21,0.73-0.39,1.17c-0.18,0.44-0.43,0.96-0.74,1.56
		c-0.16,0.31-0.37,0.65-0.62,1.02c-0.26,0.37-0.57,0.83-0.94,1.41c-0.16,0.26-0.33,0.59-0.51,0.98c-0.18,0.39-0.39,0.83-0.62,1.33
		c-0.29,0.44-0.66,0.99-1.13,1.64c-0.47,0.65-1,1.42-1.6,2.3c-0.81,1.43-1.64,2.8-2.5,4.1c0,2.53,0.5,4.43,1.5,5.72
		c1,1.29,2.51,1.93,4.51,1.93c0.13,0,0.52-0.09,1.17-0.27c0.65-0.18,1.55-0.47,2.7-0.86c0.34-0.21,0.74-0.5,1.21-0.88
		c0.47-0.38,1-0.83,1.6-1.35l1.52,3.59c-0.68,0.6-1.35,1.21-2.03,1.84c-0.68,0.62-1.37,1.24-2.07,1.84
		c-0.81,0.68-1.63,1.19-2.46,1.54c-0.83,0.35-1.65,0.53-2.46,0.53c-0.42,0-1.05-0.04-1.91-0.14c-0.86-0.09-1.51-0.14-1.95-0.14
		c-1.46,0-2.66-0.59-3.61-1.76c-0.95-1.17-1.62-2.93-2.01-5.27c-0.05-0.23-0.12-0.44-0.21-0.62c-0.09-0.18-0.25-0.39-0.49-0.62
		c-0.34,0.34-0.74,0.74-1.19,1.21c-0.46,0.47-1.01,1-1.66,1.6L62.55,85.47z M81.19,54.8l-0.27-0.16c-1.46,1.41-2.56,2.73-3.3,3.98
		s-1.11,2.46-1.11,3.63c0,0.18-0.08,0.49-0.25,0.92c-0.17,0.43-0.42,0.98-0.76,1.66c-0.42,0.81-0.85,1.69-1.29,2.66
		c-0.5,1.46-0.87,2.64-1.13,3.55c-0.26,0.91-0.39,1.56-0.39,1.95l0.23,0.31c0.23-0.03,0.52-0.26,0.86-0.7
		c0.34-0.44,0.73-1.09,1.17-1.95c0.21-0.47,0.51-1.02,0.9-1.64s0.83-1.37,1.33-2.23c0.42-0.57,1.08-2.04,1.99-4.41
		c0.91-2.37,1.41-3.88,1.48-4.53c0.03-0.52,0.1-1.04,0.21-1.54S81.08,55.3,81.19,54.8z"/>
	<path d="M84.58,85.47l0.23-0.27l0.12-0.39c0.7-0.96,1.94-2.22,3.71-3.77c1.77-1.55,2.99-2.81,3.67-3.77
		c0.26-0.42,0.56-0.72,0.9-0.9c0.34-0.18,0.68-0.27,1.02-0.27c0.91,0,1.68,0.23,2.3,0.68c0.62,0.46,1.04,1.14,1.25,2.05
		c0.18,0.81,0.35,1.62,0.51,2.44s0.29,1.65,0.39,2.48c0.18,0.52,0.4,1.31,0.66,2.36c0.26,1.05,0.46,1.66,0.59,1.82
		c0.13,0.26,0.33,0.45,0.59,0.57c0.26,0.12,0.59,0.18,0.98,0.18c0.47,0,0.95-0.08,1.45-0.25c0.49-0.17,1-0.46,1.52-0.88
		c0.39-0.34,0.8-0.68,1.23-1.04s0.85-0.7,1.27-1.04l1.56,3.59c-0.42,0.42-0.97,0.89-1.66,1.43c-0.69,0.53-1.52,1.15-2.48,1.86
		c-1.07,0.78-1.98,1.36-2.73,1.74c-0.76,0.38-1.33,0.57-1.72,0.57c-2.37,0-3.91-0.27-4.61-0.82s-1.48-2.07-2.34-4.57
		c-0.1-0.21-0.26-0.46-0.47-0.74c-0.21-0.29-0.44-0.62-0.7-1.02c-0.31-0.6-0.59-1.05-0.82-1.35c-0.23-0.3-0.43-0.45-0.59-0.45
		c-0.42,0-0.98,0.28-1.68,0.84c-0.7,0.56-1.56,1.4-2.58,2.52c-0.13-0.34-0.29-0.74-0.49-1.21s-0.4-1.02-0.61-1.64
		c-0.05-0.16-0.12-0.3-0.2-0.43C84.78,85.65,84.69,85.54,84.58,85.47z M100.91,54.65c0.65,0,1.13,0.13,1.43,0.39
		c0.3,0.26,0.45,0.64,0.45,1.13c-0.16,0.73-0.29,1.34-0.39,1.84c-0.26,0.94-0.49,1.71-0.68,2.3c-0.2,0.6-0.35,1.03-0.45,1.29
		c-0.23,0.57-0.55,1.07-0.96,1.5c-0.4,0.43-0.89,0.81-1.46,1.15c-0.6,0.42-1.1,0.71-1.5,0.88c-0.4,0.17-0.68,0.24-0.84,0.21
		c-0.44-0.05-0.87-0.1-1.27-0.14c-0.4-0.04-0.8-0.06-1.19-0.06c-0.34-0.18-0.61-0.53-0.8-1.05c-0.2-0.52-0.29-1.22-0.29-2.11
		c0-0.78,0.47-1.76,1.43-2.95c0.95-1.18,1.79-1.82,2.52-1.89c0.44-0.55,0.96-1.17,1.56-1.88c0.26-0.18,0.6-0.33,1.02-0.45
		C99.88,54.7,100.37,54.65,100.91,54.65z"/>
	<path d="M106.93,85.47c0.52-0.68,1.19-1.49,2.01-2.44c0.82-0.95,1.82-2.04,2.99-3.26c0.08-0.23,0.18-0.51,0.31-0.84
		c0.13-0.33,0.33-0.74,0.59-1.23c1.38-2.06,2.62-4.04,3.71-5.94c1.09-1.9,2.03-3.75,2.81-5.55c0.23-0.44,0.49-1,0.76-1.66
		s0.62-1.41,1.04-2.25c0.36-0.62,0.72-1.11,1.07-1.45c0.35-0.34,0.7-0.51,1.04-0.51c0.52,0,0.9,0.22,1.15,0.66
		c0.25,0.44,0.37,1.13,0.37,2.07c0,0.52-0.45,2.21-1.35,5.06s-2.23,6.87-4,12.05c-0.47,1.25-0.99,3-1.56,5.25
		c-0.57,2.25-1.24,5.06-1.99,8.42c-0.08,0.5-0.16,1.07-0.25,1.72c-0.09,0.65-0.23,1.41-0.41,2.27c-0.44,1.67-0.76,2.99-0.94,3.98
		c-0.18,0.99-0.26,1.63-0.23,1.91l0.16,0.31c0.13-0.08,0.28-0.33,0.45-0.74c0.17-0.42,0.32-1.02,0.45-1.8
		c0.16-0.7,0.27-1.3,0.35-1.78c0.08-0.48,0.09-0.88,0.04-1.19c0.57-1.51,1.25-3.44,2.03-5.8c0.78-2.36,1.69-5.1,2.73-8.22
		c0.42-0.75,0.89-1.67,1.43-2.75c0.53-1.08,1.1-2.36,1.7-3.85c0.6-0.57,1.14-1,1.62-1.27c0.48-0.27,0.89-0.41,1.23-0.41
		c0.73,0,1.41,0.2,2.03,0.59s1.2,0.96,1.72,1.72c0.13,0.18,0.37,0.64,0.72,1.39s0.83,1.75,1.43,3.03c0.34,0.78,0.69,1.39,1.05,1.82
		c0.36,0.43,0.72,0.66,1.05,0.68l1.64,3.59c-0.13,0.03-0.48,0.12-1.04,0.27c-0.56,0.16-1.36,0.33-2.4,0.51l-2.66-0.98
		c-0.65-0.18-1.44-0.82-2.36-1.91c-0.92-1.09-1.67-1.73-2.25-1.91c-0.55,0.39-1.13,1.16-1.76,2.3c-0.62,1.15-1.26,2.63-1.91,4.45
		c-0.16,0.42-0.36,0.87-0.61,1.35c-0.25,0.48-0.5,1.04-0.76,1.66c-0.16,0.99-0.34,1.94-0.55,2.85c-0.34,0.78-0.7,1.78-1.09,2.99
		s-0.81,2.65-1.25,4.32c-0.13,0.57-0.46,1.43-1,2.58c-0.53,1.15-0.85,2.02-0.96,2.62c-0.05,0.36-0.16,0.85-0.33,1.45
		c-0.17,0.6-0.42,1.3-0.76,2.11c-0.6,1.04-1.15,1.83-1.64,2.36c-0.5,0.53-0.91,0.8-1.25,0.8c-0.78,0-1.37-0.38-1.76-1.13
		c-0.39-0.76-0.59-1.88-0.59-3.36c0-2.24,0.13-4.7,0.39-7.38c0.26-2.68,0.65-5.56,1.17-8.63c0.16-0.88,0.33-1.78,0.51-2.7
		c0.18-0.91,0.36-1.84,0.55-2.77c0.23-1.09,0.4-2.1,0.49-3.01c0.09-0.91,0.11-1.73,0.06-2.46c-0.26,0.08-0.7,0.41-1.31,1
		c-0.61,0.59-1.39,1.46-2.32,2.64c-0.1-0.39-0.29-0.87-0.55-1.45C107.68,87.04,107.35,86.33,106.93,85.47z"/>
	<path d="M134.23,85.47c0.52-0.68,1.19-1.49,2.01-2.44c0.82-0.95,1.82-2.04,2.99-3.26c0.08-0.23,0.18-0.51,0.31-0.84
		c0.13-0.33,0.33-0.74,0.59-1.23c1.38-2.06,2.62-4.04,3.71-5.94c1.09-1.9,2.03-3.75,2.81-5.55c0.23-0.44,0.49-1,0.76-1.66
		s0.62-1.41,1.04-2.25c0.36-0.62,0.72-1.11,1.07-1.45c0.35-0.34,0.7-0.51,1.04-0.51c0.52,0,0.9,0.22,1.15,0.66
		c0.25,0.44,0.37,1.13,0.37,2.07c0,0.52-0.45,2.21-1.35,5.06s-2.23,6.87-4,12.05c-0.47,1.25-0.99,3-1.56,5.25
		c-0.57,2.25-1.24,5.06-1.99,8.42c-0.08,0.5-0.16,1.07-0.25,1.72c-0.09,0.65-0.23,1.41-0.41,2.27c-0.44,1.67-0.76,2.99-0.94,3.98
		c-0.18,0.99-0.26,1.63-0.23,1.91l0.16,0.31c0.13-0.08,0.28-0.33,0.45-0.74c0.17-0.42,0.32-1.02,0.45-1.8
		c0.16-0.7,0.27-1.3,0.35-1.78c0.08-0.48,0.09-0.88,0.04-1.19c0.57-1.51,1.25-3.44,2.03-5.8c0.78-2.36,1.69-5.1,2.73-8.22
		c0.42-0.75,0.89-1.67,1.43-2.75c0.53-1.08,1.1-2.36,1.7-3.85c0.6-0.57,1.14-1,1.62-1.27c0.48-0.27,0.89-0.41,1.23-0.41
		c0.73,0,1.41,0.2,2.03,0.59s1.2,0.96,1.72,1.72c0.13,0.18,0.37,0.64,0.72,1.39s0.83,1.75,1.43,3.03c0.34,0.78,0.69,1.39,1.05,1.82
		c0.36,0.43,0.72,0.66,1.05,0.68l1.64,3.59c-0.13,0.03-0.48,0.12-1.04,0.27c-0.56,0.16-1.36,0.33-2.4,0.51l-2.66-0.98
		c-0.65-0.18-1.44-0.82-2.36-1.91c-0.92-1.09-1.67-1.73-2.25-1.91c-0.55,0.39-1.13,1.16-1.76,2.3c-0.62,1.15-1.26,2.63-1.91,4.45
		c-0.16,0.42-0.36,0.87-0.61,1.35c-0.25,0.48-0.5,1.04-0.76,1.66c-0.16,0.99-0.34,1.94-0.55,2.85c-0.34,0.78-0.7,1.78-1.09,2.99
		s-0.81,2.65-1.25,4.32c-0.13,0.57-0.46,1.43-1,2.58c-0.53,1.15-0.85,2.02-0.96,2.62c-0.05,0.36-0.16,0.85-0.33,1.45
		c-0.17,0.6-0.42,1.3-0.76,2.11c-0.6,1.04-1.15,1.83-1.64,2.36c-0.5,0.53-0.91,0.8-1.25,0.8c-0.78,0-1.37-0.38-1.76-1.13
		c-0.39-0.76-0.59-1.88-0.59-3.36c0-2.24,0.13-4.7,0.39-7.38c0.26-2.68,0.65-5.56,1.17-8.63c0.16-0.88,0.33-1.78,0.51-2.7
		c0.18-0.91,0.36-1.84,0.55-2.77c0.23-1.09,0.4-2.1,0.49-3.01c0.09-0.91,0.11-1.73,0.06-2.46c-0.26,0.08-0.7,0.41-1.31,1
		c-0.61,0.59-1.39,1.46-2.32,2.64c-0.1-0.39-0.29-0.87-0.55-1.45C134.99,87.04,134.65,86.33,134.23,85.47z"/>
	<path d="M162.79,83.75l3.55-2.34c0.13-0.13,0.29-0.31,0.47-0.53c0.18-0.22,0.39-0.54,0.62-0.96c0.18-0.34,0.42-0.62,0.72-0.86
		c0.3-0.23,0.64-0.44,1.04-0.62c0.21-0.26,0.51-0.59,0.9-0.98s0.88-0.85,1.48-1.37c0.29-0.16,0.65-0.38,1.09-0.68
		c0.44-0.3,0.92-0.7,1.45-1.19c2.37-2.24,4.45-3.92,6.23-5.04c1.78-1.12,3.29-1.68,4.51-1.68c0.68,0,1.18,0.14,1.5,0.43
		c0.33,0.29,0.49,0.69,0.49,1.21c0,0.55-0.1,1.03-0.29,1.45c-0.2,0.42-0.5,0.77-0.92,1.05c-0.65,0.47-1.35,0.99-2.11,1.56
		c-0.42,0.55-0.92,1.13-1.52,1.74c-0.6,0.61-1.3,1.22-2.11,1.82c-0.26,0.34-0.48,0.64-0.66,0.9c-0.13,0.13-0.38,0.37-0.74,0.7
		c-0.37,0.34-0.85,0.73-1.45,1.17c-0.26,0.57-0.83,1.32-1.7,2.23c-0.87,0.91-2.04,2.01-3.5,3.28c-0.18,0.18-0.51,0.6-0.98,1.25
		c-0.47,0.65-1.08,1.51-1.84,2.58l0.27,0.35c0.57-0.18,1.17-0.49,1.8-0.94c0.62-0.44,1.31-1.03,2.07-1.76
		c0.88-0.81,1.61-1.46,2.17-1.97c0.56-0.51,0.96-0.84,1.19-1c0.18-0.1,0.36-0.21,0.55-0.31c0.18-0.1,0.39-0.23,0.62-0.39
		c1.2-1.43,2.32-2.49,3.36-3.18c1.04-0.69,2-1.04,2.89-1.04c0.55,0,0.96,0.21,1.25,0.64c0.29,0.43,0.46,1.07,0.51,1.93
		c-0.05,1.3-0.08,2.55-0.08,3.75c-0.03,0.83,0.2,1.58,0.68,2.25c0.48,0.66,1.11,1,1.89,1c0.23,0,0.46-0.06,0.68-0.2
		c0.22-0.13,0.45-0.3,0.68-0.51c0.18-0.23,0.36-0.46,0.53-0.66c0.17-0.21,0.34-0.42,0.53-0.62c0.1-0.05,0.25-0.14,0.45-0.27
		c0.2-0.13,0.38-0.29,0.57-0.47c0.36,0.78,0.67,1.46,0.92,2.05c0.25,0.59,0.44,1.1,0.57,1.54c-0.6,0.55-1.19,1.11-1.78,1.7
		s-1.21,1.14-1.86,1.66c-0.78,0.6-1.54,1.05-2.27,1.35c-0.73,0.3-1.46,0.45-2.19,0.45c-1.69,0-3-0.48-3.91-1.45
		c-0.91-0.96-1.45-2.42-1.6-4.38c0-0.23-0.03-0.47-0.1-0.72c-0.07-0.25-0.2-0.5-0.41-0.76c-0.13,0.13-0.27,0.27-0.43,0.41
		c-0.16,0.14-0.34,0.33-0.55,0.57c-0.34,0.26-0.76,0.59-1.27,0.98s-1.1,0.86-1.78,1.41c-0.91,0.94-1.68,1.71-2.3,2.3
		c-0.62,0.6-1.07,1.03-1.33,1.29c-0.52,0.44-1.13,0.89-1.82,1.33c-0.69,0.44-1.46,0.9-2.32,1.37c-0.55,0.29-1.02,0.51-1.41,0.68
		s-0.68,0.25-0.86,0.25c-1.25,0-2.17-0.31-2.77-0.92c-0.6-0.61-0.9-1.56-0.9-2.83c0-0.7,0.15-1.37,0.45-2.01
		c0.3-0.64,0.75-1.26,1.35-1.86c0.05-0.34,0.08-0.61,0.08-0.82c0-0.13-0.03-0.27-0.1-0.41c-0.07-0.14-0.15-0.31-0.25-0.49
		c-0.16-0.36-0.33-0.77-0.53-1.23c-0.2-0.46-0.41-0.94-0.64-1.46c0.1-0.1,0.25-0.31,0.45-0.61
		C162.3,84.56,162.53,84.19,162.79,83.75z"/>
	<path d="M191.58,85.47c0.1-0.18,0.24-0.38,0.41-0.61c0.17-0.22,0.37-0.49,0.61-0.8c0.26-0.21,0.6-0.51,1.02-0.9
		c0.42-0.39,0.88-0.85,1.41-1.37c0.47-0.52,1.04-1.17,1.72-1.93c0.68-0.77,1.5-1.7,2.46-2.79c0.42-0.44,0.94-1.01,1.56-1.7
		c0.62-0.69,1.37-1.52,2.23-2.48c0.73-0.86,1.51-1.5,2.34-1.91c0.83-0.42,1.72-0.62,2.66-0.62s1.63,0.29,2.07,0.88
		c0.44,0.59,0.66,1.44,0.66,2.56c0,0.6-0.22,1.75-0.66,3.44c-0.44,1.69-1.13,3.93-2.07,6.72c-0.23,0.52-0.46,1.02-0.66,1.48
		c-0.16,0.34-0.26,0.64-0.31,0.9c-0.05,0.26-0.08,0.46-0.08,0.59c0,0.16,0.09,0.35,0.27,0.59c0.13-0.08,0.25-0.18,0.37-0.31
		c0.12-0.13,0.25-0.29,0.41-0.47c0.21-0.39,0.53-0.8,0.96-1.23s0.94-0.9,1.54-1.43c0.23-0.44,0.54-0.88,0.92-1.31
		c0.38-0.43,0.8-0.83,1.27-1.19c0.1-0.1,0.24-0.27,0.41-0.51c0.17-0.23,0.37-0.48,0.61-0.74c0.34-0.34,0.74-0.69,1.21-1.05
		c0.47-0.36,1.02-0.74,1.64-1.13c0.7-0.36,1.33-0.65,1.89-0.86c0.56-0.21,1.05-0.31,1.46-0.31c0.81,0,1.52,0.2,2.15,0.59
		s1.16,1,1.6,1.84c0.52,1.62,1.02,3.11,1.48,4.49c0.29,0.81,0.61,1.41,0.96,1.8s0.75,0.59,1.19,0.59c0.34,0,0.64-0.06,0.92-0.2
		c0.27-0.13,0.53-0.33,0.76-0.59l1.56,3.59c-0.44,0.37-0.9,0.74-1.37,1.13s-0.92,0.77-1.37,1.13c-0.6,0.55-1.16,0.93-1.68,1.15
		c-0.52,0.22-1.04,0.33-1.56,0.33c-0.6,0-1.17-0.13-1.72-0.39c-0.55-0.26-1.02-0.65-1.41-1.17c-0.21-0.21-0.47-0.59-0.78-1.15
		c-0.31-0.56-0.68-1.26-1.09-2.09c-0.34-0.34-0.72-0.79-1.15-1.35c-0.43-0.56-0.93-1.22-1.5-1.97l-0.35-0.12
		c-0.49,0.16-0.98,0.39-1.46,0.7c-0.48,0.31-1,0.72-1.54,1.21c-1.17,1.04-2.02,1.69-2.54,1.95c-0.52,0.26-0.87,0.56-1.05,0.9
		c-0.36,0.62-0.99,1.43-1.87,2.42c-0.88,0.99-1.99,2.16-3.32,3.52c-0.34,0.34-0.68,0.67-1.01,1c-0.34,0.33-0.68,0.64-1.01,0.96
		c-0.34,0.29-0.72,0.49-1.15,0.61s-0.9,0.18-1.42,0.18c-1.04,0-1.61-0.36-1.7-1.07c-0.09-0.72-0.18-1.44-0.25-2.17
		c0.39-1.09,0.83-2.46,1.33-4.1c0.5-1.64,1.06-3.55,1.71-5.74c0-0.13,0.04-0.31,0.13-0.53c0.09-0.22,0.2-0.51,0.33-0.88
		c0.13-0.34,0.22-0.63,0.27-0.88c0.05-0.25,0.08-0.46,0.08-0.64c0-0.18-0.07-0.33-0.2-0.43c-0.13-0.1-0.34-0.16-0.62-0.16
		c-0.26,0-0.61,0.16-1.04,0.47s-0.94,0.81-1.54,1.48c-0.73,0.78-1.32,1.39-1.76,1.84c-0.44,0.44-0.74,0.7-0.9,0.78
		c-0.26,0.18-0.57,0.44-0.92,0.78c-0.35,0.34-0.75,0.72-1.19,1.13c-0.05,0.1-0.13,0.26-0.23,0.47c-0.1,0.21-0.27,0.44-0.51,0.7
		c-0.1-0.39-0.29-0.87-0.55-1.45C192.33,87.04,191.99,86.33,191.58,85.47z"/>
	<path d="M228.92,85.47l0.23-0.27c0.1-0.36,0.33-0.75,0.68-1.17c0.35-0.42,0.85-0.83,1.5-1.25c0.86-0.55,1.53-0.99,2.01-1.33
		c0.48-0.34,0.77-0.59,0.88-0.74c0.23-0.29,0.39-0.51,0.47-0.66c0.29-0.21,0.64-0.49,1.05-0.86c0.42-0.36,0.88-0.81,1.41-1.33
		c0.18-0.13,0.38-0.34,0.59-0.62c0.21-0.29,0.42-0.61,0.62-0.98c0.34-0.23,0.72-0.53,1.15-0.9c0.43-0.36,0.93-0.83,1.5-1.41
		c0.65-0.7,1.39-1.48,2.21-2.32c0.82-0.85,1.74-1.72,2.75-2.64c0.34-0.16,0.66-0.28,0.96-0.37c0.3-0.09,0.59-0.14,0.88-0.14
		c1.17,0,2.05,0.28,2.64,0.84c0.59,0.56,0.88,1.36,0.88,2.4c0,0.26-0.05,0.69-0.14,1.29c-0.09,0.6-0.19,1.35-0.29,2.27
		c-0.37,2.63-0.62,4.23-0.78,4.8c-0.16,0.57-0.7,2.37-1.64,5.39c-0.21,0.5-0.42,1.11-0.64,1.84c-0.22,0.73-0.49,1.62-0.8,2.66
		c0.05,0.1,0.18,0.21,0.39,0.31c0.18,0,0.51-0.18,0.98-0.53s1.09-0.88,1.88-1.58c0.91-0.83,1.63-1.47,2.15-1.91
		c0.52-0.44,0.85-0.7,0.98-0.78c0.31,0.7,0.6,1.35,0.86,1.93c0.26,0.59,0.48,1.14,0.66,1.66c-0.34,0.21-0.64,0.44-0.92,0.7
		c-0.27,0.26-0.53,0.55-0.76,0.86c-0.55,0.37-1.18,0.78-1.89,1.25c-0.72,0.47-1.5,0.98-2.36,1.52c-0.39,0.39-0.92,0.87-1.58,1.43
		c-0.66,0.56-1.41,1.19-2.25,1.89l-0.74,0.16c-0.37,0.49-0.71,0.87-1.04,1.13c-0.33,0.26-0.62,0.44-0.88,0.55
		c-0.42,0.16-0.83,0.31-1.25,0.45c-0.42,0.14-0.86,0.29-1.33,0.45c-0.29-0.08-0.5-0.25-0.62-0.51c-0.13-0.26-0.18-0.6-0.16-1.02
		c-0.39-0.7-0.7-1.51-0.94-2.42c-0.23-0.91-0.35-1.93-0.35-3.05c0-0.21,0.01-0.43,0.04-0.66c0.03-0.23,0.05-0.44,0.08-0.62
		c-0.18-0.68-0.27-1.08-0.27-1.21c0-0.78,0.3-1.43,0.9-1.93c0.6-0.51,1.28-0.76,2.03-0.76c0.39,0,0.67,0.2,0.84,0.61
		c0.17,0.4,0.34,0.61,0.53,0.61c0.18,0,0.37-0.36,0.57-1.07c0.2-0.72,0.38-1.76,0.57-3.14c0.18-1.2,0.3-2.24,0.35-3.12
		c0.05-0.88,0.08-1.56,0.08-2.03c0-0.34-0.07-0.59-0.21-0.76c-0.14-0.17-0.38-0.25-0.72-0.25c-0.34,0-1.43,0.78-3.28,2.34
		c-1.85,1.56-4.43,3.89-7.73,6.99c-0.1,0.18-0.25,0.4-0.45,0.66c-0.2,0.26-0.42,0.59-0.68,0.98c-0.1-0.39-0.29-0.87-0.55-1.45
		C229.68,87.04,229.34,86.33,228.92,85.47z"/>
</g>
<g>
</g>
<g>
</g>
<g>
</g>
<g>
</g>
<g>
</g>
</svg>
