<?xml version="1.0" encoding="utf-8"?>
<!-- Generator: Adobe Illustrator 25.0.0, SVG Export Plug-In . SVG Version: 6.00 Build 0)  -->
<svg version="1.1" id="Layer_1" xmlns="http://www.w3.org/2000/svg" xmlns:xlink="http://www.w3.org/1999/xlink" x="0px" y="0px"
	 viewBox="0 0 283.46 141.73" style="enable-background:new 0 0 283.46 141.73;" xml:space="preserve">
<style type="text/css">
	.st0{fill:none;}
</style>
<g>
	<rect x="7.77" y="8.57" class="st0" width="267.91" height="124.6"/>
	<path d="M51.07,70.82c-4.43,0.88-8.14,1.91-11.13,3.11c-1.8,2.64-3.77,5.8-5.92,9.49l-1.55,2.72c-0.27,0.49-0.69,1.19-1.26,2.11
		c-0.62,1.07-1.28,1.61-1.96,1.61c-0.37,0-0.68-0.15-0.94-0.44c-0.25-0.25-0.38-0.54-0.38-0.85c0-0.55,0.73-2.1,2.2-4.66
		c0.8-1.39,2.01-3.35,3.63-5.89c0.62-0.98,1.12-1.78,1.49-2.4c-1.17,0.33-2.25,0.71-3.22,1.14c-0.47,0.21-0.86,0.32-1.17,0.32
		c-0.39,0-0.69-0.18-0.91-0.53c-0.16-0.21-0.23-0.47-0.23-0.76c0-0.66,0.23-1.13,0.7-1.41c0.76-0.47,2.13-1.01,4.1-1.61
		c1.46-0.47,2.63-0.9,3.49-1.29c0.41-0.51,1.48-2,3.22-4.48c0.74-1.07,2.85-3.61,6.33-7.62c2.5-2.93,5.08-5.65,7.73-8.17
		c1.54-1.48,2.72-2.23,3.54-2.23c0.51,0,0.95,0.21,1.32,0.62c0.31,0.37,0.47,0.78,0.47,1.23c0,0.55-0.27,1.5-0.82,2.87
		c-0.94,2.4-1.84,4.97-2.7,7.71c-0.74,2.42-1.24,4.28-1.49,5.57c0.35,0,0.59-0.01,0.7-0.03c0.57-0.02,1.04-0.03,1.41-0.03
		c1.13,0,1.7,0.43,1.7,1.29c0,0.37-0.12,0.74-0.37,1.1c-0.24,0.36-0.52,0.58-0.83,0.66c-0.12,0.04-0.44,0.06-0.97,0.06
		c-1.11,0-1.94,0.07-2.49,0.21c-0.47,1.39-1.21,4.93-2.23,10.63c-0.53,3.79-0.78,6.11-0.76,6.97c0,1.41-0.42,2.11-1.26,2.11
		c-0.66,0-1.18-0.34-1.55-1.03c-0.27-0.47-0.41-1.1-0.41-1.9c0-2.7,0.48-6.33,1.44-10.9C50.48,73.82,50.84,72.05,51.07,70.82z
		 M51.89,67.66c0.18-0.57,0.62-2.08,1.35-4.54c0.18-0.64,0.62-1.92,1.35-3.84c0.72-1.97,1.3-3.55,1.73-4.75
		c-1.27,0.84-2.56,1.95-3.87,3.34c-4.61,4.96-7.86,9.01-9.76,12.16c0.72-0.18,2.27-0.62,4.66-1.32
		C48.04,68.52,49.55,68.17,51.89,67.66z"/>
	<path d="M61.85,77.27c-0.59,1.52-1.03,2.75-1.32,3.69s-0.44,1.59-0.44,1.96c0,0.49,0.23,0.73,0.7,0.73c0.7,0,1.61-0.66,2.72-1.99
		c0.53-0.64,1.31-1.81,2.34-3.49c0.41-0.66,0.84-1,1.29-1c0.51,0,0.76,0.24,0.76,0.73c0,0.84-0.97,2.54-2.9,5.1
		c-2.01,2.68-3.88,4.01-5.6,4.01c-0.74,0-1.35-0.31-1.82-0.94c-0.33-0.45-0.5-1-0.5-1.64c0-1.09,0.33-2.61,1-4.54
		s1.65-4.29,2.96-7.06c3.36-7.05,6.79-12.86,10.28-17.43c2.79-3.67,5.11-5.51,6.94-5.51c0.59,0,1.06,0.22,1.44,0.67
		c0.39,0.45,0.59,0.97,0.59,1.55c0,2.73-2.44,7.29-7.32,13.65c-2.19,2.83-4.8,5.66-7.85,8.5C64.33,75.02,63.24,76.02,61.85,77.27z
		 M63.93,72.61c4.06-3.48,7.69-7.87,10.9-13.18c1.66-2.75,2.49-4.58,2.49-5.48c0-0.43-0.19-0.64-0.56-0.64
		c-1.07,0-3.03,2.14-5.86,6.42C68.56,63.23,66.24,67.53,63.93,72.61z"/>
	<path d="M77.62,69.45c0.33,0,0.6,0.13,0.82,0.38c0.16,0.22,0.23,0.43,0.23,0.64c0,0.35-0.28,0.94-0.85,1.76
		c-2.03,3.14-3.48,5.73-4.34,7.76c-0.92,2.09-1.73,4.24-2.43,6.45c-0.31,0.98-0.8,1.46-1.46,1.46c-0.39,0-0.7-0.16-0.94-0.47
		c-0.21-0.25-0.32-0.53-0.32-0.82c0-0.59,0.63-2.54,1.88-5.86c0.98-2.62,2.56-5.51,4.75-8.67c0.7-1.04,1.23-1.73,1.58-2.08
		C76.88,69.63,77.24,69.45,77.62,69.45z M83.18,58.58c0.88,0,1.32,0.45,1.32,1.35c0,0.82-0.43,1.73-1.29,2.72
		c-0.82,0.96-1.61,1.44-2.37,1.44c-0.37,0-0.67-0.14-0.91-0.41c-0.23-0.25-0.35-0.57-0.35-0.94c0-0.94,0.52-1.93,1.55-2.99
		C81.89,58.97,82.58,58.58,83.18,58.58z"/>
	<path d="M86.29,71.44c0.8-0.51,1.4-0.86,1.79-1.05c0.8-0.39,1.58-0.59,2.34-0.59c0.86,0,1.5,0.25,1.93,0.75
		c0.43,0.5,0.64,1.25,0.64,2.24c0,1.37-0.48,3.01-1.44,4.92c-1.48,3.03-3.28,5.41-5.39,7.15c-1.78,1.46-3.45,2.2-5.01,2.2
		c-0.86,0-1.71-0.33-2.55-1c-2.68,5.41-5.07,10.93-7.18,16.55c-0.45,1.35-0.98,2.02-1.58,2.02c-0.29,0-0.59-0.2-0.88-0.59
		c-0.21-0.27-0.32-0.58-0.32-0.91c0-1.05,1.29-4.48,3.87-10.28c3.98-8.95,7.76-16.38,11.34-22.29c0.74-1.25,1.24-2.11,1.49-2.58
		c0.68-1.27,1.35-1.9,1.99-1.9c0.66,0,1,0.4,1,1.2c0,0.45-0.23,1.05-0.7,1.82C87.07,70.07,86.62,70.85,86.29,71.44z M79.7,83.6
		c0.43,0.45,0.97,0.67,1.61,0.67c1.82,0,3.83-1.61,6.04-4.83c0.82-1.19,1.47-2.41,1.96-3.66c0.39-1,0.59-1.75,0.59-2.26
		c0-0.35-0.08-0.62-0.25-0.79c-0.17-0.18-0.42-0.26-0.78-0.26c-0.92,0-2.04,0.63-3.37,1.9c-1.27,1.23-2.49,2.96-3.66,5.19
		C80.76,81.6,80.05,82.95,79.7,83.6z"/>
	<path d="M102.11,71.44c0.8-0.51,1.4-0.86,1.79-1.05c0.8-0.39,1.58-0.59,2.34-0.59c0.86,0,1.5,0.25,1.93,0.75
		c0.43,0.5,0.64,1.25,0.64,2.24c0,1.37-0.48,3.01-1.44,4.92c-1.48,3.03-3.28,5.41-5.39,7.15c-1.78,1.46-3.45,2.2-5.01,2.2
		c-0.86,0-1.71-0.33-2.55-1c-2.68,5.41-5.07,10.93-7.18,16.55c-0.45,1.35-0.98,2.02-1.58,2.02c-0.29,0-0.59-0.2-0.88-0.59
		c-0.21-0.27-0.32-0.58-0.32-0.91c0-1.05,1.29-4.48,3.87-10.28c3.98-8.95,7.76-16.38,11.34-22.29c0.74-1.25,1.24-2.11,1.49-2.58
		c0.68-1.27,1.35-1.9,1.99-1.9c0.66,0,1,0.4,1,1.2c0,0.45-0.23,1.05-0.7,1.82C102.89,70.07,102.44,70.85,102.11,71.44z M95.52,83.6
		c0.43,0.45,0.97,0.67,1.61,0.67c1.82,0,3.83-1.61,6.04-4.83c0.82-1.19,1.47-2.41,1.96-3.66c0.39-1,0.59-1.75,0.59-2.26
		c0-0.35-0.08-0.62-0.25-0.79c-0.17-0.18-0.42-0.26-0.78-0.26c-0.92,0-2.04,0.63-3.37,1.9c-1.27,1.23-2.49,2.96-3.66,5.19
		C96.58,81.6,95.87,82.95,95.52,83.6z"/>
	<path d="M118.1,82.16c-0.64,1.13-1.28,2.09-1.9,2.87c-1.23,1.52-2.45,2.29-3.66,2.29c-1.05,0-1.88-0.5-2.46-1.49
		c-0.37-0.64-0.56-1.41-0.56-2.29c0-2.17,0.68-4.56,2.05-7.18c1.52-2.91,3.36-5.15,5.51-6.71c1.41-1.02,2.76-1.52,4.07-1.52
		c0.82,0,1.5,0.25,2.05,0.76c0.47,0.45,0.7,0.96,0.7,1.52c0,0.43-0.17,1.03-0.5,1.79c0.29,0.41,0.44,0.77,0.44,1.08
		c0,0.41-0.27,1.08-0.82,2.02c-0.57,0.96-1.13,2.23-1.7,3.81c-0.61,1.68-0.91,3.03-0.91,4.04c0,0.82,0.24,1.49,0.73,2.02
		c0.14,0.14,0.54,0.36,1.2,0.67c0.49,0.23,0.73,0.64,0.73,1.23c0,0.37-0.14,0.67-0.41,0.91c-0.29,0.25-0.63,0.38-1.03,0.38
		c-1.05,0-1.96-0.47-2.72-1.41c-0.63-0.76-0.94-1.72-0.94-2.87C117.99,83.7,118.03,83.06,118.1,82.16z M121.77,72.52
		c-0.23-0.43-0.49-0.75-0.76-0.95c-0.27-0.21-0.57-0.31-0.88-0.31c-1.48,0-3.1,1.3-4.83,3.9c-1.91,2.87-2.87,5.3-2.87,7.29
		c0,0.49,0.09,0.86,0.28,1.11c0.19,0.25,0.46,0.38,0.83,0.38c0.94,0,2.03-1,3.28-2.99c0.7-1.09,1.57-2.71,2.61-4.83
		c0.68-1.39,1.18-2.3,1.49-2.75C121.07,73.14,121.36,72.85,121.77,72.52z"/>
	<path d="M144.47,67.28c0.33,2.83,0.61,4.85,0.82,6.06c0.23,1.35,0.72,3.62,1.46,6.83c2.01-2.97,3.22-5.57,3.63-7.79
		c-0.51-0.04-0.84-0.07-1-0.09c-1.07-0.04-1.77-0.17-2.08-0.38c-0.39-0.27-0.59-0.67-0.59-1.2c0-0.47,0.13-0.85,0.38-1.14
		c0.31-0.35,0.72-0.53,1.23-0.53c0.18,0,0.65,0.03,1.44,0.09c0.16,0.02,0.3,0.03,0.44,0.03c1.41,0,3.69-0.23,6.86-0.7
		c1.04-0.16,2.06-0.23,3.08-0.23c1.86,0,2.78,0.64,2.78,1.93c0,0.84-0.35,1.26-1.05,1.26c-0.33,0-0.88-0.08-1.64-0.23
		c-0.39-0.1-0.83-0.15-1.32-0.15c-0.98,0-3.01,0.31-6.09,0.94c-0.33,1.66-0.96,3.55-1.88,5.68c-1.04,2.32-2.09,4.1-3.16,5.33
		c0.59,1.04,1.08,1.78,1.49,2.23c0.84,0.94,1.94,1.41,3.31,1.41c0.66,0,1.35-0.09,2.05-0.26c0.78-0.18,1.39-0.26,1.82-0.26
		c0.72,0,1.08,0.36,1.08,1.08c0,0.64-0.45,1.19-1.35,1.64c-1.33,0.66-2.78,1-4.37,1c-2.58,0-4.72-1.37-6.42-4.1
		c-2.6,2.46-5.11,3.69-7.53,3.69c-2.75,0-4.94-1.13-6.56-3.4c-1.11-1.54-1.67-3.42-1.67-5.62c0-2.75,0.82-5.3,2.46-7.65
		c1.7-2.38,4.76-4.52,9.17-6.42c-0.16-1.27-0.23-2.37-0.23-3.31c0-2.13,0.3-3.99,0.91-5.6c0.57-1.54,1.54-2.84,2.93-3.9
		c1.27-0.96,2.64-1.44,4.1-1.44c1.21,0,2.22,0.43,3.02,1.29c0.86,0.9,1.29,1.97,1.29,3.22c0,1.7-0.6,3.45-1.79,5.24
		c-0.9,1.31-2.49,2.68-4.78,4.1C146.45,66.09,145.7,66.54,144.47,67.28z M141.48,68.77c-1.76,0.82-3.24,1.78-4.45,2.87
		c-2.7,2.42-4.04,5.04-4.04,7.85c0,1.72,0.46,3.18,1.38,4.39c0.98,1.31,2.38,1.96,4.22,1.96c1.89,0,3.82-1,5.77-2.99
		c-0.72-1.76-1.36-4.12-1.9-7.09C142.08,73,141.76,70.67,141.48,68.77z M144.24,65.02c1.56-0.88,2.8-1.77,3.72-2.67
		c1.5-1.5,2.26-2.96,2.26-4.37c0-0.72-0.2-1.34-0.59-1.85c-0.37-0.49-0.84-0.73-1.41-0.73c-1.19,0-2.23,0.69-3.11,2.08
		c-0.68,1.09-1.03,2.87-1.03,5.33C144.09,63.2,144.14,63.93,144.24,65.02z"/>
	<path d="M183.38,70.82c-4.43,0.88-8.14,1.91-11.13,3.11c-1.8,2.64-3.77,5.8-5.92,9.49l-1.55,2.72c-0.27,0.49-0.69,1.19-1.26,2.11
		c-0.62,1.07-1.28,1.61-1.96,1.61c-0.37,0-0.68-0.15-0.94-0.44c-0.25-0.25-0.38-0.54-0.38-0.85c0-0.55,0.73-2.1,2.2-4.66
		c0.8-1.39,2.01-3.35,3.63-5.89c0.62-0.98,1.12-1.78,1.49-2.4c-1.17,0.33-2.25,0.71-3.22,1.14c-0.47,0.21-0.86,0.32-1.17,0.32
		c-0.39,0-0.69-0.18-0.91-0.53c-0.16-0.21-0.23-0.47-0.23-0.76c0-0.66,0.23-1.13,0.7-1.41c0.76-0.47,2.13-1.01,4.1-1.61
		c1.46-0.47,2.63-0.9,3.49-1.29c0.41-0.51,1.48-2,3.22-4.48c0.74-1.07,2.85-3.61,6.33-7.62c2.5-2.93,5.08-5.65,7.73-8.17
		c1.54-1.48,2.72-2.23,3.54-2.23c0.51,0,0.95,0.21,1.32,0.62c0.31,0.37,0.47,0.78,0.47,1.23c0,0.55-0.27,1.5-0.82,2.87
		c-0.94,2.4-1.84,4.97-2.7,7.71c-0.74,2.42-1.24,4.28-1.49,5.57c0.35,0,0.59-0.01,0.7-0.03c0.57-0.02,1.04-0.03,1.41-0.03
		c1.13,0,1.7,0.43,1.7,1.29c0,0.37-0.12,0.74-0.37,1.1c-0.24,0.36-0.52,0.58-0.83,0.66c-0.12,0.04-0.44,0.06-0.97,0.06
		c-1.11,0-1.94,0.07-2.49,0.21c-0.47,1.39-1.21,4.93-2.23,10.63c-0.53,3.79-0.78,6.11-0.76,6.97c0,1.41-0.42,2.11-1.26,2.11
		c-0.66,0-1.18-0.34-1.55-1.03c-0.27-0.47-0.41-1.1-0.41-1.9c0-2.7,0.48-6.33,1.44-10.9C182.78,73.82,183.14,72.05,183.38,70.82z
		 M184.2,67.66c0.18-0.57,0.62-2.08,1.35-4.54c0.18-0.64,0.62-1.92,1.35-3.84c0.72-1.97,1.3-3.55,1.73-4.75
		c-1.27,0.84-2.56,1.95-3.87,3.34c-4.61,4.96-7.86,9.01-9.76,12.16c0.72-0.18,2.28-0.62,4.66-1.32
		C180.34,68.52,181.85,68.17,184.2,67.66z"/>
	<path d="M194.16,77.27c-0.59,1.52-1.03,2.75-1.32,3.69s-0.44,1.59-0.44,1.96c0,0.49,0.23,0.73,0.7,0.73c0.7,0,1.61-0.66,2.72-1.99
		c0.53-0.64,1.31-1.81,2.34-3.49c0.41-0.66,0.84-1,1.29-1c0.51,0,0.76,0.24,0.76,0.73c0,0.84-0.97,2.54-2.9,5.1
		c-2.01,2.68-3.88,4.01-5.6,4.01c-0.74,0-1.35-0.31-1.82-0.94c-0.33-0.45-0.5-1-0.5-1.64c0-1.09,0.33-2.61,1-4.54
		s1.65-4.29,2.96-7.06c3.36-7.05,6.79-12.86,10.28-17.43c2.79-3.67,5.11-5.51,6.94-5.51c0.59,0,1.06,0.22,1.44,0.67
		c0.39,0.45,0.59,0.97,0.59,1.55c0,2.73-2.44,7.29-7.32,13.65c-2.19,2.83-4.8,5.66-7.85,8.5C196.64,75.02,195.55,76.02,194.16,77.27
		z M196.24,72.61c4.06-3.48,7.7-7.87,10.9-13.18c1.66-2.75,2.49-4.58,2.49-5.48c0-0.43-0.19-0.64-0.56-0.64
		c-1.07,0-3.03,2.14-5.86,6.42C200.87,63.23,198.54,67.53,196.24,72.61z"/>
	<path d="M209.92,69.45c0.33,0,0.61,0.13,0.82,0.38c0.16,0.22,0.23,0.43,0.23,0.64c0,0.35-0.28,0.94-0.85,1.76
		c-2.03,3.14-3.48,5.73-4.34,7.76c-0.92,2.09-1.73,4.24-2.43,6.45c-0.31,0.98-0.8,1.46-1.46,1.46c-0.39,0-0.7-0.16-0.94-0.47
		c-0.21-0.25-0.32-0.53-0.32-0.82c0-0.59,0.62-2.54,1.88-5.86c0.98-2.62,2.56-5.51,4.75-8.67c0.7-1.04,1.23-1.73,1.58-2.08
		C209.19,69.63,209.55,69.45,209.92,69.45z M215.49,58.58c0.88,0,1.32,0.45,1.32,1.35c0,0.82-0.43,1.73-1.29,2.72
		c-0.82,0.96-1.61,1.44-2.37,1.44c-0.37,0-0.67-0.14-0.91-0.41c-0.23-0.25-0.35-0.57-0.35-0.94c0-0.94,0.52-1.93,1.55-2.99
		C214.2,58.97,214.88,58.58,215.49,58.58z"/>
	<path d="M218.59,71.44c0.8-0.51,1.4-0.86,1.79-1.05c0.8-0.39,1.58-0.59,2.34-0.59c0.86,0,1.5,0.25,1.93,0.75s0.64,1.25,0.64,2.24
		c0,1.37-0.48,3.01-1.44,4.92c-1.48,3.03-3.28,5.41-5.39,7.15c-1.78,1.46-3.45,2.2-5.01,2.2c-0.86,0-1.71-0.33-2.55-1
		c-2.68,5.41-5.07,10.93-7.18,16.55c-0.45,1.35-0.98,2.02-1.58,2.02c-0.29,0-0.59-0.2-0.88-0.59c-0.21-0.27-0.32-0.58-0.32-0.91
		c0-1.05,1.29-4.48,3.87-10.28c3.98-8.95,7.76-16.38,11.34-22.29c0.74-1.25,1.24-2.11,1.49-2.58c0.68-1.27,1.35-1.9,1.99-1.9
		c0.66,0,1,0.4,1,1.2c0,0.45-0.23,1.05-0.7,1.82C219.37,70.07,218.92,70.85,218.59,71.44z M212,83.6c0.43,0.45,0.97,0.67,1.61,0.67
		c1.82,0,3.83-1.61,6.04-4.83c0.82-1.19,1.47-2.41,1.96-3.66c0.39-1,0.59-1.75,0.59-2.26c0-0.35-0.08-0.62-0.25-0.79
		s-0.42-0.26-0.78-0.26c-0.92,0-2.04,0.63-3.37,1.9c-1.27,1.23-2.49,2.96-3.66,5.19C213.07,81.6,212.35,82.95,212,83.6z"/>
	<path d="M234.41,71.44c0.8-0.51,1.4-0.86,1.79-1.05c0.8-0.39,1.58-0.59,2.34-0.59c0.86,0,1.5,0.25,1.93,0.75s0.64,1.25,0.64,2.24
		c0,1.37-0.48,3.01-1.44,4.92c-1.48,3.03-3.28,5.41-5.39,7.15c-1.78,1.46-3.45,2.2-5.01,2.2c-0.86,0-1.71-0.33-2.55-1
		c-2.68,5.41-5.07,10.93-7.18,16.55c-0.45,1.35-0.98,2.02-1.58,2.02c-0.29,0-0.59-0.2-0.88-0.59c-0.21-0.27-0.32-0.58-0.32-0.91
		c0-1.05,1.29-4.48,3.87-10.28c3.98-8.95,7.76-16.38,11.34-22.29c0.74-1.25,1.24-2.11,1.49-2.58c0.68-1.27,1.35-1.9,1.99-1.9
		c0.66,0,1,0.4,1,1.2c0,0.45-0.23,1.05-0.7,1.82C235.19,70.07,234.75,70.85,234.41,71.44z M227.82,83.6
		c0.43,0.45,0.97,0.67,1.61,0.67c1.82,0,3.83-1.61,6.04-4.83c0.82-1.19,1.47-2.41,1.96-3.66c0.39-1,0.59-1.75,0.59-2.26
		c0-0.35-0.08-0.62-0.25-0.79s-0.42-0.26-0.78-0.26c-0.92,0-2.04,0.63-3.37,1.9c-1.27,1.23-2.49,2.96-3.66,5.19
		C228.89,81.6,228.17,82.95,227.82,83.6z"/>
	<path d="M249.47,69.45c0.33,0,0.61,0.13,0.82,0.38c0.16,0.22,0.23,0.43,0.23,0.64c0,0.35-0.28,0.94-0.85,1.76
		c-2.03,3.14-3.48,5.73-4.34,7.76c-0.92,2.09-1.73,4.24-2.43,6.45c-0.31,0.98-0.8,1.46-1.46,1.46c-0.39,0-0.7-0.16-0.94-0.47
		c-0.21-0.25-0.32-0.53-0.32-0.82c0-0.59,0.62-2.54,1.88-5.86c0.98-2.62,2.56-5.51,4.75-8.67c0.7-1.04,1.23-1.73,1.58-2.08
		C248.74,69.63,249.1,69.45,249.47,69.45z M255.04,58.58c0.88,0,1.32,0.45,1.32,1.35c0,0.82-0.43,1.73-1.29,2.72
		c-0.82,0.96-1.61,1.44-2.37,1.44c-0.37,0-0.67-0.14-0.91-0.41c-0.23-0.25-0.35-0.57-0.35-0.94c0-0.94,0.52-1.93,1.55-2.99
		C253.75,58.97,254.43,58.58,255.04,58.58z"/>
</g>
<g>
</g>
<g>
</g>
<g>
</g>
<g>
</g>
<g>
</g>
</svg>
